<?xml version="1.0" encoding="UTF-8"?>
<svg id="_圖層_1" data-name="圖層_1" xmlns="http://www.w3.org/2000/svg" xmlns:xlink="http://www.w3.org/1999/xlink" version="1.1" viewBox="0 0 427.8 17.4">
  <!-- Generator: Adobe Illustrator 30.0.0, SVG Export Plug-In . SVG Version: 2.1.1 Build 123)  -->
  <defs>
    <style>
      .st0 {
        fill: url(#linear-gradient2);
      }

      .st1 {
        fill: url(#linear-gradient1);
      }

      .st2 {
        fill: url(#linear-gradient9);
      }

      .st3 {
        fill: url(#linear-gradient3);
      }

      .st4 {
        fill: url(#linear-gradient6);
      }

      .st5 {
        fill: url(#linear-gradient8);
      }

      .st6 {
        fill: url(#linear-gradient7);
      }

      .st7 {
        fill: url(#linear-gradient5);
      }

      .st8 {
        fill: url(#linear-gradient4);
      }

      .st9 {
        fill: url(#linear-gradient13);
      }

      .st10 {
        fill: url(#linear-gradient12);
      }

      .st11 {
        fill: url(#linear-gradient15);
      }

      .st12 {
        fill: url(#linear-gradient16);
      }

      .st13 {
        fill: url(#linear-gradient11);
      }

      .st14 {
        fill: url(#linear-gradient10);
      }

      .st15 {
        fill: url(#linear-gradient14);
      }

      .st16 {
        fill: url(#linear-gradient);
      }
    </style>
    <linearGradient id="linear-gradient" x1="-111.3" y1="8.7" x2="597.5" y2="8.7" gradientUnits="userSpaceOnUse">
      <stop offset="0" stop-color="#f3debb"/>
      <stop offset="0" stop-color="#e5c5a1"/>
      <stop offset=".1" stop-color="#d5a983"/>
      <stop offset=".3" stop-color="#a57b5d"/>
      <stop offset=".4" stop-color="#d5a983"/>
      <stop offset=".5" stop-color="#f3debb"/>
      <stop offset=".5" stop-color="#e5c5a1"/>
      <stop offset=".6" stop-color="#d5a983"/>
      <stop offset=".7" stop-color="#a57b5d"/>
      <stop offset=".8" stop-color="#d5a983"/>
      <stop offset="1" stop-color="#f3debb"/>
    </linearGradient>
    <linearGradient id="linear-gradient1" x1="-65.1" y1="4.3" x2="542" y2="4.3" xlink:href="#linear-gradient"/>
    <linearGradient id="linear-gradient2" x1="-65.1" y1="13" x2="542" y2="13" xlink:href="#linear-gradient"/>
    <linearGradient id="linear-gradient3" x1="-65" y1="8.7" x2="542" y2="8.7" xlink:href="#linear-gradient"/>
    <linearGradient id="linear-gradient4" x1="-65" y1="8.7" x2="542" y2="8.7" xlink:href="#linear-gradient"/>
    <linearGradient id="linear-gradient5" x1="-65.1" y1="6.6" x2="542" y2="6.6" xlink:href="#linear-gradient"/>
    <linearGradient id="linear-gradient6" x1="-65.1" y1="10.8" x2="542" y2="10.8" xlink:href="#linear-gradient"/>
    <linearGradient id="linear-gradient7" x1="-65.1" y1="8.7" x2="542" y2="8.7" xlink:href="#linear-gradient"/>
    <linearGradient id="linear-gradient8" x1="-65" y1="8.7" x2="542" y2="8.7" xlink:href="#linear-gradient"/>
    <linearGradient id="linear-gradient9" x1="-65" y1="6.6" x2="542" y2="6.6" xlink:href="#linear-gradient"/>
    <linearGradient id="linear-gradient10" x1="-65" y1="10.8" x2="542" y2="10.8" xlink:href="#linear-gradient"/>
    <linearGradient id="linear-gradient11" x1="-65" y1="8.7" x2="542" y2="8.7" xlink:href="#linear-gradient"/>
    <linearGradient id="linear-gradient12" x1="-65.1" y1="8.7" x2="542" y2="8.7" xlink:href="#linear-gradient"/>
    <linearGradient id="linear-gradient13" x1="-35.1" y1="6.1" x2="572" y2="6.1" xlink:href="#linear-gradient"/>
    <linearGradient id="linear-gradient14" x1="-35.1" y1="11.8" x2="572" y2="11.8" xlink:href="#linear-gradient"/>
    <linearGradient id="linear-gradient15" x1="-95" y1="6.1" x2="512" y2="6.1" xlink:href="#linear-gradient"/>
    <linearGradient id="linear-gradient16" x1="-95" y1="11.8" x2="512" y2="11.8" xlink:href="#linear-gradient"/>
  </defs>
  <g>
    <rect class="st16" x="2" y="8" width="417.6" height="1.3"/>
    <g>
      <path class="st1" d="M213.3,3.8l-2.5-3.8-2.5,3.8c-.5.8-.4,1.9.2,2.6l2.2,2.3,2.2-2.3c.7-.7.8-1.8.2-2.6Z"/>
      <path class="st0" d="M208.3,13.6l2.5,3.8,2.5-3.8c.5-.8.4-1.9-.2-2.6l-2.2-2.3-2.2,2.3c-.7.7-.8,1.8-.2,2.6Z"/>
      <path class="st3" d="M201.8,4.6l-3.6,3.7-1.8-1.9c-.4-.4-1-.4-1.4.1-.7.9,0,2.2,1.1,2.2-1.1,0-1.8,1.3-1.1,2.2h0c.4.5,1,.6,1.4.1l1.8-1.9,3.6,3.7c.9.9,2.4,1,3.4.2l5.6-4.4-5.6-4.4c-1-.8-2.5-.7-3.4.2Z"/>
      <path class="st8" d="M225.5,8.7c1.2,0,1.8-1.5,1-2.4-.4-.4-1-.4-1.4.1l-1.5,2-3.8-3.9c-.9-.9-2.4-1-3.4-.2l-5.6,4.4,5.6,4.4c1,.8,2.5.7,3.4-.2l3.8-3.9,1.5,2c.4.5,1,.6,1.4.1.9-.9.2-2.4-1-2.4Z"/>
    </g>
    <g>
      <path class="st7" d="M257.9,6.3l-1.2-1.9-1.2,1.9c-.3.4-.2.9.1,1.3l1.1,1.1,1.1-1.1c.3-.3.4-.9.1-1.3Z"/>
      <path class="st4" d="M255.4,11.1l1.2,1.9,1.2-1.9c.3-.4.2-.9-.1-1.3l-1.1-1.1-1.1,1.1c-.3.3-.4.9-.1,1.3Z"/>
      <path class="st6" d="M261,6.7c-.4-.5-1.2-.5-1.7-.1l-2.7,2.1,2.7,2.1c.5.4,1.2.3,1.7-.1l2-2-2-2Z"/>
      <path class="st5" d="M252.2,6.7l-2,2,2,2c.4.5,1.2.5,1.7.1l2.7-2.1-2.7-2.1c-.5-.4-1.2-.3-1.7.1Z"/>
      <path class="st2" d="M166.2,6.3l-1.2-1.9-1.2,1.9c-.3.4-.2.9.1,1.3l1.1,1.1,1.1-1.1c.3-.3.4-.9.1-1.3Z"/>
      <path class="st14" d="M163.8,11.1l1.2,1.9,1.2-1.9c.3-.4.2-.9-.1-1.3l-1.1-1.1-1.1,1.1c-.3.3-.4.9-.1,1.3Z"/>
      <path class="st13" d="M167.7,6.5l-2.7,2.1,2.7,2.1c.5.4,1.2.3,1.7-.1l2-2-2-2c-.4-.5-1.2-.5-1.7-.1Z"/>
      <path class="st10" d="M160.6,6.7l-2,2,2,2c.4.5,1.2.5,1.7.1l2.7-2.1-2.7-2.1c-.5-.4-1.2-.3-1.7.1Z"/>
    </g>
  </g>
  <g>
    <path class="st9" d="M420.5,8.9l3.5-4.8c.8-1.1,2.1-1.2,3-.3h0c1.8,1.9.5,5.1-2.1,5.1h-4.4Z"/>
    <path class="st15" d="M420.5,8.9l3.5,4.8c.8,1.1,2.1,1.2,3,.3h0c1.8-1.9.5-5.1-2.1-5.1h-4.4Z"/>
  </g>
  <g>
    <path class="st11" d="M7.3,8.9l-3.5-4.8c-.8-1.1-2.1-1.2-3-.3h0c-1.8,1.9-.5,5.1,2.1,5.1h4.4Z"/>
    <path class="st12" d="M7.3,8.9l-3.5,4.8c-.8,1.1-2.1,1.2-3,.3h0c-1.8-1.9-.5-5.1,2.1-5.1h4.4Z"/>
  </g>
</svg>