<?xml version="1.0" encoding="UTF-8"?>
<svg id="_圖層_1" data-name="圖層_1" xmlns="http://www.w3.org/2000/svg" xmlns:xlink="http://www.w3.org/1999/xlink" version="1.1" viewBox="0 0 598.2 43.6">
  <!-- Generator: Adobe Illustrator 30.0.0, SVG Export Plug-In . SVG Version: 2.1.1 Build 123)  -->
  <defs>
    <style>
      .st0 {
        fill: url(#_未命名的渐变_2);
      }

      .st1 {
        fill: url(#_未命名的渐变_213);
      }

      .st2 {
        fill: url(#_未命名的渐变_212);
      }

      .st3 {
        fill: url(#_未命名的渐变_211);
      }

      .st4 {
        fill: url(#_未命名的渐变_210);
      }

      .st5 {
        fill: url(#_未命名的渐变_29);
      }

      .st6 {
        fill: url(#_未命名的渐变_23);
      }

      .st7 {
        fill: url(#_未命名的渐变_28);
      }

      .st8 {
        fill: url(#_未命名的渐变_27);
      }

      .st9 {
        fill: url(#_未命名的渐变_21);
      }

      .st10 {
        fill: url(#_未命名的渐变_26);
      }

      .st11 {
        fill: url(#_未命名的渐变_22);
      }

      .st12 {
        fill: url(#_未命名的渐变_24);
      }

      .st13 {
        fill: url(#_未命名的渐变_25);
      }
    </style>
    <linearGradient id="_未命名的渐变_2" data-name="未命名的渐变 2" x1="-4936.9" y1="-144.7" x2="-4903.3" y2="-144.7" gradientTransform="translate(3691.5 3591.4) rotate(45)" gradientUnits="userSpaceOnUse">
      <stop offset="0" stop-color="#d0b962"/>
      <stop offset=".5" stop-color="#f7f7f7"/>
      <stop offset="1" stop-color="#d0b962"/>
    </linearGradient>
    <linearGradient id="_未命名的渐变_21" data-name="未命名的渐变 2" x1="3465.8" y1="-8689.7" x2="3499.5" y2="-8689.7" gradientTransform="translate(8891.1 3691.9) rotate(135) scale(1 -1)" xlink:href="#_未命名的渐变_2"/>
    <linearGradient id="_未命名的渐变_22" data-name="未命名的渐变 2" x1="3599.4" y1="8323" x2="3579.9" y2="8164.5" gradientTransform="translate(8548.7 -3563.1) rotate(90)" xlink:href="#_未命名的渐变_2"/>
    <linearGradient id="_未命名的渐变_23" data-name="未命名的渐变 2" x1="3596.3" y1="8323.4" x2="3576.8" y2="8164.9" gradientTransform="translate(8548.7 -3563.1) rotate(90)" xlink:href="#_未命名的渐变_2"/>
    <linearGradient id="_未命名的渐变_24" data-name="未命名的渐变 2" x1="3598.1" y1="8323.2" x2="3578.6" y2="8164.7" gradientTransform="translate(8548.7 -3563.1) rotate(90)" xlink:href="#_未命名的渐变_2"/>
    <linearGradient id="_未命名的渐变_25" data-name="未命名的渐变 2" x1="3612.6" y1="8321.4" x2="3593.1" y2="8162.9" gradientTransform="translate(8548.7 -3563.1) rotate(90)" xlink:href="#_未命名的渐变_2"/>
    <linearGradient id="_未命名的渐变_26" data-name="未命名的渐变 2" x1="3607.3" y1="8322.1" x2="3587.7" y2="8163.5" gradientTransform="translate(8548.7 -3563.1) rotate(90)" xlink:href="#_未命名的渐变_2"/>
    <linearGradient id="_未命名的渐变_27" data-name="未命名的渐变 2" x1="3599.9" y1="8323" x2="3580.3" y2="8164.4" gradientTransform="translate(8548.7 -3563.1) rotate(90)" xlink:href="#_未命名的渐变_2"/>
    <linearGradient id="_未命名的渐变_28" data-name="未命名的渐变 2" x1="3595.8" y1="8323.5" x2="3576.3" y2="8164.9" gradientTransform="translate(8548.7 -3563.1) rotate(90)" xlink:href="#_未命名的渐变_2"/>
    <linearGradient id="_未命名的渐变_29" data-name="未命名的渐变 2" x1="3594.9" y1="8323.6" x2="3575.4" y2="8165.1" gradientTransform="translate(8548.7 -3563.1) rotate(90)" xlink:href="#_未命名的渐变_2"/>
    <linearGradient id="_未命名的渐变_210" data-name="未命名的渐变 2" x1="384.6" y1="30" x2="389.3" y2="29.4" gradientTransform="matrix(1,0,0,1,0,0)" xlink:href="#_未命名的渐变_2"/>
    <linearGradient id="_未命名的渐变_211" data-name="未命名的渐变 2" x1="209.4" y1="30" x2="214.1" y2="29.4" gradientTransform="matrix(1,0,0,1,0,0)" xlink:href="#_未命名的渐变_2"/>
    <linearGradient id="_未命名的渐变_212" data-name="未命名的渐变 2" x1="399.2" y1="39.7" x2="598.4" y2="15.2" gradientTransform="matrix(1,0,0,1,0,0)" xlink:href="#_未命名的渐变_2"/>
    <linearGradient id="_未命名的渐变_213" data-name="未命名的渐变 2" x1=".4" y1="15" x2="199.5" y2="39.6" gradientTransform="matrix(1,0,0,1,0,0)" xlink:href="#_未命名的渐变_2"/>
  </defs>
  <g>
    <path class="st0" d="M331.1,17.5s.9-5-5-7.4c-5.9-2.5-13.9,1.3-20.2-.6-4-1.2-6.2-5-5.4-6.4s2.1-.5,2.1-.5c0,0,.9-1,.1-2-.7-1-2.4-.5-3,1-.7,1.5-1.5,6.5,5.7,11.1,3,1.9,7.5,2.3,11.6,1.8,5.7-.8,11.2-2.5,14,3.1Z"/>
    <path class="st9" d="M267.6,17.5s-.9-5,5-7.4c5.9-2.5,13.9,1.3,20.2-.6,4-1.2,6.2-5,5.4-6.4-1.1-1.8-2.1-.5-2.1-.5,0,0-.9-1-.1-2s2.4-.5,3,1c.7,1.5,1.5,6.5-5.7,11.1-3,1.9-7.5,2.3-11.6,1.8s-11.2-2.5-14,3.1Z"/>
  </g>
  <g>
    <g>
      <path class="st11" d="M309,26c.2,0,.3-.2.4-.5,0-.3,0-.6-.1-1-.2-.4-.5-.8-1-1.1-.5-.3-1.2-.5-1.8-.4-.3,0-.7.1-1.2.3-.4.2-.9.4-1.3.8-.4.3-.8.8-1,1.2-.3.5-.5.9-.6,1.4-.1.5-.2.9-.2,1.4,0,.2,0,.4,0,.6,0,.2,0,.4,0,.5,0,.2,0,.3,0,.4,0,.1,0,.2,0,.3,0,.2.1.3.2.3,0,0,0,0,.2-.3,0-.2.2-.4.3-.7,0-.1.1-.3.2-.4,0-.1.1-.3.2-.5.2-.3.4-.6.6-.9.2-.3.5-.6.8-.8.3-.2.6-.4.8-.5.3-.1.5-.2.7-.2,0,0,0,0,.1,0,0,0,0,0,.1,0,0,0,0,0,.1,0,0,0,0,0,0,0,.2,0,.4,0,.6,0,.2,0,.4,0,.6,0,.4,0,.9.2,1.3,0Z"/>
      <path class="st6" d="M302.5,22.5c-1.2,2.6-1.5,6.3-1.5,6.8,0,0,0,0,0,0l-1.1,1.3c-.2.2-.4.2-.6,0l-1.1-1.3s0,0,0,0c0-.5-.3-3.9-1.5-6.8,0,0,2.3-4.2,2.9-5,0,0,.2,0,.2,0,.5.9,2.8,5.1,2.8,5.1Z"/>
      <path class="st12" d="M290,25.9c-.2,0-.3-.2-.4-.5,0-.3,0-.6.1-1,.2-.4.5-.8,1.1-1.1.5-.3,1.2-.4,1.8-.4.3,0,.7.1,1.2.3.4.2.9.4,1.3.8.4.3.8.8,1,1.2.3.5.5,1,.6,1.4.1.5.2,1,.2,1.4,0,.2,0,.4,0,.6,0,.2,0,.4,0,.5,0,.2,0,.3,0,.4,0,.1,0,.2,0,.3,0,.2-.1.3-.2.3,0,0,0,0-.2-.3,0-.2-.2-.4-.3-.7,0-.1-.1-.3-.2-.4,0-.2-.1-.3-.2-.5-.2-.3-.4-.6-.6-.9-.2-.3-.5-.6-.8-.8-.3-.2-.6-.4-.8-.5-.3-.1-.5-.2-.7-.2,0,0,0,0-.1,0,0,0,0,0-.1,0,0,0,0,0-.1,0,0,0,0,0,0,0-.2,0-.4,0-.6,0-.2,0-.4,0-.6,0-.4,0-.9.2-1.3,0Z"/>
    </g>
    <path class="st13" d="M299.4,43.6l-1.4-3h0c.6-.8,1.4-2.8,1.4-2.8v-.2c0,0,.1.2.1.2,0,0,.8,2.1,1.3,2.9h0s-1.4,3-1.4,3Z"/>
    <path class="st10" d="M375.4,32.2c.1-.4.2-.8.3-1.2,0-.5,0-1,0-1.5-.1-1.1-.6-2.2-1.4-3.3-.8-1.1-1.9-2.1-3.3-3-1.3-.9-2.8-1.7-4.3-2.4-1.6-.7-3.2-1.2-4.9-1.6-1.7-.4-3.3-.7-5-.8-3.3-.3-6.3-.2-8.7,0-1.2.2-2.5.4-4,.8-1.4.3-3,.8-4.5,1.2-3.1,1-6.4,2.3-9.5,3.8-1.5.8-3,1.6-4.4,2.4-.3.2-.7.4-1,.6-.3.2-.7.4-1,.6-.7.4-1.3.8-1.9,1.2-2.5,1.6-4.6,2.9-6.1,3.8-2,1.2-4,2.2-5.9,3-1.9.8-3.7,1.4-5.3,1.6-.8.1-1.5.1-2.2,0-.3,0-.6-.1-.9-.2-.3,0-.5-.2-.7-.3-.4-.2-.7-.5-.8-.7-.1-.2-.2-.3-.1-.4,0,0,.4.3,1.2.5.7.3,1.9.3,3.3,0,1.4-.3,3.1-1,4.9-1.8,1.8-.8,3.7-1.9,5.7-3,1.5-.8,3.6-2.1,6.1-3.6.6-.4,1.3-.8,1.9-1.2.3-.2.7-.4,1-.6.4-.2.7-.4,1.1-.6,1.5-.8,3-1.6,4.6-2.3,3.2-1.4,6.6-2.7,9.8-3.5,1.6-.4,3.2-.8,4.6-1.1,1.5-.3,2.8-.5,4-.6,2.4-.4,5.5-.7,8.8-.5,1.7,0,3.4.3,5.1.7,1.7.4,3.4.9,5.1,1.5,1.6.6,3.2,1.4,4.6,2.4.7.5,1.4,1,2,1.5.6.5,1.2,1.1,1.7,1.7,1,1.2,1.6,2.7,1.8,4,.1.7.1,1.3,0,1.9,0,.6-.2,1.1-.3,1.6-.4,1.2-1.2,2.3-2.1,3.1-.5.4-1,.7-1.5,1-.5.3-1.1.5-1.6.6-.5.1-1.1.2-1.6.2-.5,0-1.1,0-1.6-.3-1-.3-1.8-1-2.3-1.7-.2-.4-.4-.8-.5-1.2,0-.4,0-.8,0-1.2.1-.4.4-.7.7-.9.1,0,.3-.1.4-.2,0,0,.1,0,.2,0,0,0,.1,0,.2,0,.2,0,.5,0,.6,0,.2,0,.3,0,.4.1.2,0,.3.2.3.2,0,0-.1,0-.4,0-.1,0-.2,0-.4,0-.2,0-.3,0-.5,0,0,0,0,0-.1,0,0,0,0,0-.1,0,0,0-.2,0-.2.2-.1.1-.2.3-.3.5,0,.4,0,1,.5,1.5.4.5,1,.9,1.7,1.1.4,0,.8.1,1.2.1.4,0,.8-.1,1.3-.2.4-.1.9-.3,1.3-.5.4-.2.8-.5,1.2-.8.7-.6,1.3-1.5,1.6-2.4Z"/>
    <path class="st8" d="M347.3,18.1s-.7-.2-2-.5c-.3,0-.7-.1-1.1-.2-.4,0-.8-.2-1.3-.2-.5,0-1-.1-1.5-.2-.5,0-1.1,0-1.7-.1,0,0-.1,0-.2,0,0,0-.1,0-.2,0-.2,0-.3,0-.5,0-.3,0-.6,0-.9,0-.3,0-.7,0-1,0-.3,0-.7,0-1,0-.2,0-.3,0-.5,0-.2,0-.4,0-.5,0-.4,0-.7,0-1.1,0-.4,0-.7.1-1.1.2-.2,0-.4,0-.6,0-.2,0-.4,0-.6.1-.4,0-.8.2-1.2.2-.2,0-.4,0-.6.1-.2,0-.4.1-.6.2-.2,0-.4.1-.6.2h-.3c0,0-.3.2-.3.2-.4.1-.8.3-1.2.4h-.3c0,.1-.3.2-.3.2-.2,0-.4.2-.6.2-.2,0-.4.2-.6.3h-.3c0,.1-.3.3-.3.3-.4.2-.8.4-1.2.6-.1,0-.2,0-.3.2l-.3.2c-.2.1-.4.2-.6.3-.2.1-.4.2-.6.3,0,0-.2.1-.3.2l-.3.2c-.4.2-.8.5-1.1.7l-.3.2-.3.2c-.2.1-.4.3-.5.4-.3.3-.7.5-1,.8-1.3,1.1-2.5,2.1-3.7,3.1-1.2,1-2.3,1.9-3.4,2.7-1.1.8-2.2,1.5-3.2,2-2,1.1-3.8,1.6-5.1,1.8-.6,0-1.1.1-1.5.2-.3,0-.5,0-.5,0,0,0,.2,0,.5,0,.3,0,.9,0,1.5,0,.7,0,1.5,0,2.4-.3.5,0,1-.2,1.5-.4.5-.2,1-.3,1.6-.6,1.1-.4,2.3-1,3.5-1.8,1.2-.7,2.4-1.6,3.7-2.5,1.2-.9,2.5-1.9,3.8-2.9.3-.2.7-.5,1-.7.2-.1.3-.2.5-.4l.3-.2.3-.2c.4-.2.7-.5,1.1-.7l.3-.2c0,0,.2-.1.3-.2.2-.1.4-.2.6-.3.2-.1.4-.2.6-.3l.3-.2c0,0,.2,0,.3-.1.4-.2.8-.4,1.1-.6h.3c0-.1.3-.3.3-.3.2,0,.4-.2.6-.2.2,0,.4-.2.6-.2h.3c0-.1.3-.2.3-.2.4-.1.8-.3,1.1-.4h.3c0-.1.3-.2.3-.2.2,0,.4-.1.6-.2.2,0,.4-.1.6-.2.2,0,.4-.1.6-.2.4,0,.7-.2,1.1-.3,2.9-.7,5.7-1,8-1.1.6,0,1.1,0,1.6,0,.5,0,1,0,1.5,0,.5,0,.9,0,1.3,0,.4,0,.8,0,1.1,0,1.3.1,2,.2,2,.2Z"/>
    <path class="st7" d="M221.7,32.1c-.2-.5-.3-1-.3-1.6,0-.6,0-1.2,0-1.9.2-1.3.9-2.8,1.9-4,.5-.6,1.1-1.2,1.7-1.7.6-.5,1.3-1,2-1.5,1.4-.9,3-1.7,4.7-2.3,1.7-.6,3.4-1.1,5.1-1.5,1.7-.3,3.5-.5,5.1-.6,3.3-.1,6.4.2,8.8.6,1.2.1,2.6.3,4,.6,1.5.3,3,.7,4.6,1.1,3.2.9,6.6,2.2,9.7,3.6,1.6.7,3.1,1.5,4.6,2.3.4.2.7.4,1.1.6.4.2.7.4,1,.6.7.4,1.3.8,1.9,1.2,2.5,1.6,4.6,2.9,6.1,3.7,2,1.2,3.9,2.2,5.7,3.1,1.8.9,3.4,1.5,4.9,1.9,1.4.4,2.6.4,3.3.1.7-.2,1.1-.6,1.2-.5,0,0,0,.2-.1.4-.1.2-.4.5-.8.7-.2.1-.4.2-.7.3-.3,0-.6.2-.9.2-.7,0-1.4,0-2.2,0-1.6-.2-3.4-.8-5.3-1.6-1.9-.8-3.9-1.9-5.9-3-1.5-.9-3.6-2.2-6.1-3.8-.6-.4-1.2-.8-1.9-1.3-.3-.2-.7-.4-1-.6-.3-.2-.7-.4-1-.6-1.4-.8-2.9-1.6-4.4-2.4-3.1-1.5-6.3-2.9-9.4-3.9-1.6-.5-3.1-.9-4.5-1.3-1.4-.3-2.8-.6-4-.8-2.4-.3-5.4-.4-8.7-.2-1.6.1-3.3.4-5,.8-1.7.4-3.3.9-4.9,1.6-1.6.7-3,1.4-4.4,2.3-1.3.9-2.5,1.9-3.3,3-.8,1.1-1.3,2.2-1.5,3.3,0,.5,0,1,0,1.5,0,.5.1.9.3,1.2.3,1,.9,1.8,1.6,2.5.4.3.7.6,1.2.8.4.2.8.4,1.3.5.4.1.9.2,1.3.2.4,0,.8,0,1.2-.1.7-.2,1.3-.6,1.7-1.1.4-.5.6-1.1.5-1.5,0-.2-.1-.4-.3-.5,0,0-.1-.1-.2-.2,0,0,0,0-.1,0,0,0,0,0-.1,0-.2,0-.3,0-.5-.1-.2,0-.3,0-.4,0-.2,0-.3,0-.4,0,0,0,0-.1.3-.2.1,0,.3,0,.4-.1.2,0,.4,0,.6,0,0,0,.1,0,.2,0,0,0,.1,0,.2,0,.1,0,.3,0,.4.2.3.2.6.5.7.9.1.4.1.8,0,1.2,0,.4-.3.8-.5,1.2-.5.7-1.3,1.4-2.3,1.7-.5.2-1,.2-1.6.2-.5,0-1.1,0-1.6-.2-.5-.1-1.1-.4-1.6-.6-.5-.3-1-.6-1.5-1-.9-.8-1.7-1.9-2.1-3.1Z"/>
    <path class="st5" d="M251.6,17.8s.7,0,2-.2c.3,0,.7,0,1.1,0,.4,0,.8,0,1.3,0,.5,0,1,0,1.5,0,.5,0,1.1,0,1.6,0,2.3.1,5,.4,7.9,1.2.4,0,.7.2,1.1.3.2,0,.4.1.6.2.2,0,.4.1.6.2.2,0,.4.1.6.2h.3c0,0,.3.2.3.2.4.1.7.3,1.1.4h.3c0,.1.3.2.3.2.2,0,.4.2.6.3.2,0,.4.2.6.3h.3c0,.1.3.3.3.3.4.2.8.4,1.1.6,0,0,.2,0,.3.1l.3.2c.2.1.4.2.6.3.2.1.4.2.6.3,0,0,.2.1.3.2l.3.2c.4.2.7.5,1.1.7l.3.2.3.2c.2.1.3.2.5.4.3.2.7.5,1,.7,1.3,1,2.6,2,3.8,3,1.2.9,2.5,1.8,3.6,2.5,1.2.7,2.3,1.3,3.4,1.8.5.2,1.1.4,1.6.6.5.2,1,.3,1.5.4.9.2,1.7.3,2.4.3.7,0,1.2,0,1.5,0,.3,0,.5,0,.5,0,0,0-.2,0-.5,0-.3,0-.8,0-1.5-.2-1.3-.2-3.1-.7-5.1-1.9-1-.5-2.1-1.2-3.1-2-1.1-.8-2.2-1.7-3.4-2.7-1.2-1-2.4-2.1-3.7-3.1-.3-.3-.7-.5-1-.8-.2-.1-.3-.3-.5-.4l-.3-.2-.3-.2c-.4-.2-.7-.5-1.1-.7l-.3-.2c0,0-.2-.1-.3-.2-.2-.1-.4-.2-.6-.3-.2-.1-.4-.2-.6-.3l-.3-.2c0,0-.2-.1-.3-.2-.4-.2-.8-.4-1.2-.6h-.3c0-.1-.3-.3-.3-.3-.2,0-.4-.2-.6-.3-.2,0-.4-.2-.6-.3h-.3c0-.1-.3-.2-.3-.2-.4-.1-.8-.3-1.2-.4h-.3c0-.1-.3-.2-.3-.2-.2,0-.4-.1-.6-.2-.2,0-.4-.1-.6-.2-.2,0-.4-.1-.6-.2-.4,0-.8-.2-1.2-.3-.2,0-.4,0-.6-.1-.2,0-.4,0-.6,0-.4,0-.8-.1-1.1-.2-.4,0-.7,0-1.1-.1-.2,0-.4,0-.5,0-.2,0-.4,0-.5,0-.3,0-.7,0-1,0-.3,0-.7,0-1,0-.3,0-.6,0-.9,0-.2,0-.3,0-.5,0,0,0-.2,0-.2,0,0,0-.1,0-.2,0-.6,0-1.1,0-1.7.1-.5,0-1,.1-1.5.2-.5,0-.9.1-1.3.2-.4,0-.7.1-1.1.2-1.3.3-2,.5-2,.5Z"/>
  </g>
  <circle class="st4" cx="386.9" cy="29.7" r="2.4"/>
  <circle class="st3" cx="211.7" cy="29.7" r="2.4"/>
  <path class="st2" d="M398.9,31c7.5-4.1,15.7-6.8,24.1-8.4,8.4-1.6,17-2.2,25.6-2.1,8.6,0,17.1.9,25.5,1.9,8.5,1.1,16.8,2.5,25.2,3.9,8.3,1.5,16.7,2.8,25,3.8,8.3,1,16.7,1.6,25.1,1.7,8.4,0,16.8-.5,25-2.2,8.2-1.6,16.3-4.3,23.8-8.2-7,4.8-15,8.1-23.3,10.4-8.3,2.2-16.9,3.3-25.4,3.5-8.6.3-17.1-.2-25.6-1-8.5-.9-16.9-2.2-25.3-3.6-8.3-1.5-16.7-2.9-25-4.1-8.3-1.2-16.7-2.1-25.1-2.6-8.4-.4-16.8-.3-25.1.8-8.3,1-16.6,3.1-24.4,6.2Z"/>
  <path class="st1" d="M0,23.8c7.9,3.2,16.1,5.2,24.4,6.2,8.3,1.1,16.7,1.2,25.1.8,8.4-.5,16.7-1.4,25.1-2.6,8.3-1.2,16.7-2.6,25-4.1,8.4-1.4,16.8-2.7,25.3-3.6,8.5-.8,17.1-1.3,25.6-1,8.6.3,17.1,1.4,25.4,3.5,8.3,2.2,16.3,5.6,23.3,10.4-7.5-3.9-15.6-6.6-23.8-8.2-8.2-1.6-16.6-2.2-25-2.2-8.4,0-16.8.7-25.1,1.7-8.4,1-16.7,2.3-25,3.8-8.4,1.4-16.7,2.8-25.2,3.9-8.5,1-17,1.8-25.5,1.9-8.6.1-17.2-.5-25.6-2.1-8.4-1.7-16.6-4.3-24.1-8.4Z"/>
</svg>