<?xml version="1.0" encoding="UTF-8"?>
<svg id="_圖層_1" xmlns="http://www.w3.org/2000/svg" xmlns:xlink="http://www.w3.org/1999/xlink" version="1.1" viewBox="0 0 221.8 50.5">
  <!-- Generator: Adobe Illustrator 30.0.0, SVG Export Plug-In . SVG Version: 2.1.1 Build 123)  -->
  <defs>
    <style>
      .st0 {
        fill: url(#_未命名漸層);
      }

      .st1 {
        isolation: isolate;
      }

      .st2 {
        fill: url(#_未命名漸層1);
      }

      .st3 {
        fill: #012b35;
      }

      .st4 {
        fill: url(#_未命名漸層_7);
      }

      .st5 {
        fill: url(#_未命名漸層_5);
      }

      .st6 {
        fill: url(#_未命名漸層_6);
      }

      .st7 {
        fill: url(#_未命名漸層_2);
      }

      .st8 {
        fill: url(#_未命名漸層_3);
      }

      .st9 {
        fill: url(#_未命名漸層_4);
      }

      .st10 {
        display: none;
      }
    </style>
    <linearGradient id="_未命名漸層" data-name="未命名漸層" x1="41.5" y1="-42.6" x2="219.8" y2="135.6" gradientTransform="translate(0 52) scale(1 -1)" gradientUnits="userSpaceOnUse">
      <stop offset="0" stop-color="#eedebc"/>
      <stop offset="0" stop-color="#ddc5a3"/>
      <stop offset="0" stop-color="#c9a885"/>
      <stop offset=".3" stop-color="#9a7a5f"/>
      <stop offset=".4" stop-color="#c9a885"/>
      <stop offset=".5" stop-color="#eedebc"/>
      <stop offset=".5" stop-color="#ddc5a3"/>
      <stop offset=".6" stop-color="#c9a885"/>
      <stop offset=".7" stop-color="#9a7a5f"/>
      <stop offset=".8" stop-color="#c9a885"/>
      <stop offset="1" stop-color="#eedebc"/>
    </linearGradient>
    <linearGradient id="_未命名漸層_2" data-name="未命名漸層 2" x1="-503.4" y1="-684.9" x2="485.9" y2="304.4" gradientTransform="translate(0 52) scale(1 -1)" gradientUnits="userSpaceOnUse">
      <stop offset="0" stop-color="#eedebc"/>
      <stop offset="0" stop-color="#ddc5a3"/>
      <stop offset="0" stop-color="#c9a885"/>
      <stop offset=".3" stop-color="#9a7a5f"/>
      <stop offset=".4" stop-color="#c9a885"/>
      <stop offset=".5" stop-color="#eedebc"/>
      <stop offset=".5" stop-color="#ddc5a3"/>
      <stop offset=".6" stop-color="#c9a885"/>
      <stop offset=".7" stop-color="#9a7a5f"/>
      <stop offset=".8" stop-color="#c9a885"/>
      <stop offset="1" stop-color="#eedebc"/>
    </linearGradient>
    <linearGradient id="_未命名漸層_3" data-name="未命名漸層 3" x1="-50.2" y1="-40" x2="939.1" y2="949.3" gradientTransform="translate(0 52) scale(1 -1)" gradientUnits="userSpaceOnUse">
      <stop offset="0" stop-color="#eedebc"/>
      <stop offset="0" stop-color="#ddc5a3"/>
      <stop offset="0" stop-color="#c9a885"/>
      <stop offset=".3" stop-color="#9a7a5f"/>
      <stop offset=".4" stop-color="#c9a885"/>
      <stop offset=".5" stop-color="#eedebc"/>
      <stop offset=".5" stop-color="#ddc5a3"/>
      <stop offset=".6" stop-color="#c9a885"/>
      <stop offset=".7" stop-color="#9a7a5f"/>
      <stop offset=".8" stop-color="#c9a885"/>
      <stop offset="1" stop-color="#eedebc"/>
    </linearGradient>
    <linearGradient id="_未命名漸層_4" data-name="未命名漸層 4" x1="67.6" y1="28.2" x2="153.1" y2="28.2" gradientTransform="translate(0 52) scale(1 -1)" gradientUnits="userSpaceOnUse">
      <stop offset="0" stop-color="#d0b962"/>
      <stop offset=".5" stop-color="#f7f7f7"/>
      <stop offset="1" stop-color="#d0b962"/>
    </linearGradient>
    <linearGradient id="_未命名漸層_5" data-name="未命名漸層 5" x1="67.6" y1="27.3" x2="153.1" y2="27.3" gradientTransform="translate(0 52) scale(1 -1)" gradientUnits="userSpaceOnUse">
      <stop offset="0" stop-color="#d0b962"/>
      <stop offset=".5" stop-color="#f7f7f7"/>
      <stop offset="1" stop-color="#d0b962"/>
    </linearGradient>
    <linearGradient id="_未命名漸層_6" data-name="未命名漸層 6" x1="67.6" y1="27.5" x2="153.1" y2="27.5" gradientTransform="translate(0 52) scale(1 -1)" gradientUnits="userSpaceOnUse">
      <stop offset="0" stop-color="#d0b962"/>
      <stop offset=".5" stop-color="#f7f7f7"/>
      <stop offset="1" stop-color="#d0b962"/>
    </linearGradient>
    <linearGradient id="_未命名漸層_7" data-name="未命名漸層 7" x1="67.6" y1="27.4" x2="153.1" y2="27.4" gradientTransform="translate(0 52) scale(1 -1)" gradientUnits="userSpaceOnUse">
      <stop offset="0" stop-color="#d0b962"/>
      <stop offset=".5" stop-color="#f7f7f7"/>
      <stop offset="1" stop-color="#d0b962"/>
    </linearGradient>
    <linearGradient id="_未命名漸層1" data-name="未命名漸層" x1="41.6" y1="790.5" x2="219.9" y2="612.3" gradientTransform="translate(0 -696)" xlink:href="#_未命名漸層"/>
  </defs>
  <g class="st10">
    <path class="st0" d="M212.9,50.5H8.7c-.1,0-1.3-.5-2-2-1.1-2.3-.9-5.9.8-10.6.9-2.6.9-5-.2-6.9-1.9-3.6-6.6-4.8-6.7-4.8-.3-.2-.6-.6-.6-.9s.3-.7.6-.8c0,0,4.8-1.2,6.7-4.9,1-1.9,1.1-4.3.2-6.9-1.7-4.7-1.9-8.2-.8-10.6.7-1.6,1.9-2.1,2-2.1h204.5c.1,0,1.3.5,2,2,1.1,2.3.9,5.9-.8,10.6-.9,2.6-.9,5,.2,6.9,1.9,3.6,6.6,4.8,6.7,4.9.4,0,.6.4.6.8s-.3.7-.6.8c0,0-4.8,1.2-6.7,4.9-1,1.9-1.1,4.3-.2,6.9,1.7,4.7,1.9,8.2.8,10.6-.8,1.6-1.9,2-2,2h-.3ZM9.2,48.8h203.5c.5-.3,3-2.3.1-10.4-1.1-3.1-1-5.9.3-8.3,1.4-2.5,3.8-4.1,5.5-4.9-1.8-.8-4.2-2.3-5.5-4.9-1.3-2.4-1.4-5.2-.3-8.3,2.9-8.1.4-10.1-.1-10.4H9.1c-.5.3-3,2.3-.1,10.4,1.1,3.1,1,5.9-.3,8.3-1.4,2.5-3.8,4.1-5.5,4.9,1.8.8,4.2,2.3,5.5,4.9,1.3,2.4,1.4,5.2.3,8.3-2.9,8.1-.4,10.1.1,10.4h0Z"/>
    <g>
      <path class="st7" d="M208,6.4c.9.4,1.4,1.4,1.6,2.3.2.9.2,1.9,0,2.9-.1.9-.4,1.9-.6,2.8-.3.9-.6,1.8-.8,2.7-.3,1.8.1,3.8,1.4,5.2,1.2,1.4,2.9,2.3,4.7,2.9l.6.2-.6.2c-1.8.5-3.5,1.5-4.7,2.9-1.3,1.4-1.7,3.4-1.4,5.2.2.9.5,1.8.8,2.7s.5,1.8.6,2.8c.1.9.1,1.9,0,2.9-.2.9-.7,1.9-1.6,2.3.9-.4,1.3-1.4,1.5-2.3.2-.9.1-1.9,0-2.8-.2-.9-.4-1.9-.7-2.7-.3-.9-.6-1.8-.8-2.7-.3-1.9,0-4,1.4-5.4,1.3-1.5,3-2.5,4.8-3v.3c-1.8-.6-3.6-1.5-4.8-3-1.3-1.5-1.7-3.6-1.4-5.4.2-.9.5-1.9.8-2.7.3-.9.5-1.8.7-2.7.1-.9.2-1.9,0-2.8-.2-.9-.6-1.9-1.5-2.3v-.5Z"/>
      <path class="st8" d="M16.8,44.1c-.9-.4-1.4-1.4-1.6-2.3-.2-.9-.2-1.9,0-2.9.1-.9.4-1.9.6-2.8.3-.9.6-1.8.8-2.7.3-1.8-.1-3.8-1.4-5.2-1.2-1.4-2.9-2.3-4.7-2.9l-.6-.2.6-.2c1.8-.5,3.5-1.5,4.7-2.9,1.3-1.4,1.7-3.4,1.4-5.2-.2-.9-.5-1.8-.8-2.7s-.5-1.8-.6-2.8c-.1-.9-.1-1.9,0-2.9.2-.9.7-1.9,1.6-2.3-.9.4-1.3,1.4-1.5,2.3-.2.9-.1,1.9,0,2.8.2.9.4,1.9.7,2.7.3.9.6,1.8.8,2.7.3,1.9,0,4-1.4,5.4-1.3,1.5-3,2.5-4.8,3v-.3c1.8.6,3.6,1.5,4.8,3,1.3,1.5,1.7,3.6,1.4,5.4-.2.9-.5,1.9-.8,2.7-.3.9-.5,1.8-.7,2.7-.1.9-.2,1.9,0,2.8.2.9.6,1.9,1.5,2.3v.5Z"/>
    </g>
  </g>
  <g class="st10">
    <path class="st9" d="M84.4,30.7s1.5,1.2,2.4,2c0,.2-.3.3-.6.3h-18.4l-.2-.6h10.3c1.1-3.4,2.3-8,2.9-11.2l3,.8c0,.3-.3.5-.8.5-.9,2.8-2.7,6.8-4.5,10h4.6l1.3-1.7h0ZM68.7,20l-.2-.6h14l1.2-1.7s1.5,1.1,2.3,1.9c0,.2-.3.3-.6.3h-16.8,0ZM71.5,21.3c5.7,5.8,4.1,11.8,1.9,9.5,0-3-1.2-6.7-2.2-9.4h.3,0ZM74.9,14.5c5.4,1.6,3.8,5.7,1.8,4.2-.2-1.4-1.2-3-2-4h.2v-.2Z"/>
    <path class="st5" d="M98.3,15.1l2,1.6c0,.2-.5.3-.9.4v8.1c0,.1-.9.5-1.6.5h-.3v-1.3h-4.1v6c1.1-.5,2.4-1.1,3.8-1.7-.4-1-1-2-1.5-2.8h.2c5.7,3.4,3.9,8.1,2.1,6.2,0-.9-.3-2-.6-2.9-1.2.9-2.8,2.2-4.7,3.5-.2.3-.4.6-.6.7l-1.2-2.3c.5-.3.6-.5.6-1v-15l2.1.9h3.6l.9-1.1.2.2ZM97.6,20v-3.2h-4.1v3.2h4.1ZM97.6,23.9v-3.3h-4.1v3.3h4.1ZM109.1,16.8c0,.2-.4.3-.8.4v11c0,1.4-.3,2.3-2.5,2.5,0-.7,0-1.2-.4-1.5s-.7-.6-1.5-.7v-.3s1.7.1,2.1.1.4-.1.4-.4v-11.1h-3.4v16.9c0,.3-.7.8-1.5.8h-.3V15.3l1.9.9h3.1l.9-1.1,2,1.6h0Z"/>
    <path class="st6" d="M115.3,29s0,.2-.2.2l1.9.9c0,.2-.3.3-.8.3-.7,1.3-2,3-3.5,4l-.2-.3c1-1.3,1.8-3.3,2.2-4.8-.2,0-.5.1-.8.1h-.3v-14.4l1.9.8h1.8l.9-1.1,1.8,1.5c-.2.2-.4.3-.8.4v12c0,.1-.6.5-1.5.5h-.3v-1h-2.1v.8h0ZM115.3,16.6v3.2h2.1v-3.2h-2.1ZM117.4,23.7v-3.2h-2.1v3.2h2.1ZM117.4,27.6v-3.3h-2.1v3.3h2.1ZM116.8,29.2c4.4,1.8,2.7,5.2,1.1,3.8,0-1.2-.7-2.7-1.3-3.7h.2ZM130.6,28.2s.9.9,1.4,1.6c0,.2-.2.3-.5.3h-1.7v2c0,1.3-.2,2.1-2.4,2.3,0-.6,0-1-.4-1.3s-.7-.5-1.6-.6v-.3s1.8,0,2.2,0,.4,0,.4-.4v-1.8h-5.7v3.8c0,.2-.7.6-1.4.6h-.3v-4.4h-1.3v-.6c0,0,1.3,0,1.3,0v-6.5l1.8.8h1.9v-1.5h-4.8l-.2-.6h2.8v-1.8h-2l-.2-.6h2.2v-1.7h-2.3l-.2-.6h2.5v-2.3l2.4.2c0,.3-.2.5-.6.5v1.5h2.4v-2.3l2.3.2c0,.3-.2.5-.6.5v1.5h.6l.9-1.3s1.1.9,1.7,1.6c0,.2-.2.3-.5.3h-2.7v1.7h.6l.8-1.1s.9.8,1.5,1.4c0,.2-.2.3-.5.3h-2.4v1.8h.9l.9-1.3s1.1.9,1.7,1.6c0,.2-.2.3-.5.3h-5.1v1.5h1.9l.8-1,1.9,1.5c-.1.2-.4.3-.8.4v4.6l.7-1.2.2.3ZM122.4,24.5v2.2h2v-2.2h-2ZM122.4,29.5h2v-2.2h-2v2.2ZM124,19.3h2.4v-1.7h-2.4v1.7ZM124,21.7h2.4v-1.8h-2.4v1.8ZM126,24.5v2.2h2v-2.2h-2ZM128.1,29.5v-2.2h-2v2.2h2Z"/>
    <path class="st4" d="M135.6,34.1c2.6-.8,5.4-2.4,6.8-3.6l2.3,1.7c-.2.2-.6.3-1.1,0-1.8.9-4.9,1.8-7.8,2.1v-.3h-.2ZM139,20.3c0,.2-.8.6-1.6.6h-.3v-6l2,.9h11.1l.9-1,2,1.5c-.1.2-.4.3-.8.4v3.5c0,.1-1,.5-1.6.5h-.3v-.8h-11.4v.4h0ZM148.8,30.9v-.8h-8.2v.5c0,.2-.8.6-1.6.6h-.3v-10.7l2,.9h7.9l.9-1.1,1.9,1.6c-.1.2-.4.3-.8.4v7.9c0,.2-1,.6-1.6.6h-.3.1ZM139,16.4v2.9h2.6v-2.9h-2.6ZM140.6,22.1v2h8.2v-2h-8.2ZM148.8,24.8h-8.2v2h8.2v-2ZM148.8,29.5v-2.1h-8.2v2.1h8.2ZM143.3,16.4v2.9h2.6v-2.9h-2.6ZM145.7,31.1c10.6.5,7.1,4.5,5.2,3-1-.9-2.7-2-5.2-2.7,0,0,0-.3,0-.3ZM147.8,16.4v2.9h2.6v-2.9h-2.6Z"/>
  </g>
  <g id="logo">
    <path class="st2" d="M212.9,50.3H8.8c-.1,0-1.3-.5-2-2-1.1-2.3-.9-5.9.8-10.6.9-2.7.9-5-.2-6.9-1.9-3.6-6.6-4.8-6.7-4.8-.4,0-.6-.4-.6-.8s.3-.7.6-.8c0,0,4.8-1.2,6.7-4.9,1-2,1.1-4.3.1-6.9-1.7-4.7-1.9-8.2-.8-10.6C7.5.4,8.6,0,8.7,0h204.5c.1,0,1.2.5,2,2,1.1,2.4.9,5.9-.8,10.6-.9,2.6-.9,5,.1,6.9,1.9,3.6,6.6,4.8,6.7,4.9.4,0,.6.4.6.8s-.3.7-.6.8c0,0-4.8,1.2-6.7,4.9-1,2-1.1,4.3-.1,6.9,1.7,4.7,1.9,8.2.8,10.6-.8,1.6-1.9,2-2,2h-.3.1Z"/>
    <g class="st1">
      <g class="st1">
        <path class="st3" d="M84.1,30.1s1.9,1.5,3.1,2.5c0,.2-.3.3-.6.3h-18.8l-.2-.6h10.3c.9-3.5,1.9-8.5,2.4-11.8l4.2,1.1c0,.3-.3.5-.8.5-1.1,2.7-3,6.9-5.1,10.1h3.9l1.7-2.3v.2ZM68.5,19.6l-.2-.6h13.5l1.6-2.2s1.9,1.5,3,2.4c0,.2-.3.3-.6.3h-17.3ZM71.2,20.9c7.3,5.5,5,13,1.9,9.8,0-3.2-1.1-6.7-2.1-9.7h.2ZM74.9,14.1c6.9.8,4.4,6.4,1.6,4.2-.2-1.5-1-3-1.7-4.1h0Z"/>
        <path class="st3" d="M98,14.5l2.6,2.1c0,.2-.4.4-.8.5v7.8c0,.2-1.4.7-2.3.7h-.5v-1.2h-2.8v5c.9-.4,1.8-.8,2.8-1.2-.2-.8-.6-1.6-.9-2.3h.2c6.3,3.1,3.7,8.8,1.2,6.3,0-1,0-2-.3-3-1,1.1-2.3,2.4-3.9,3.8-.2.5-.5.8-.8,1l-1.8-3.3c.6-.5.7-.7.7-1.3v-14.5l3,1.2h2.3l1.2-1.4v-.2ZM97,19.8v-3.2h-2.8v3.2h2.8ZM97,23.7v-3.3h-2.8v3.3h2.8ZM109.2,16.6c0,.2-.4.3-.8.4v10.4c0,2-.4,3.1-3.1,3.3,0-1,0-1.7-.3-2.2-.2-.5-.5-.8-1.3-1v-.3h1.6c.3,0,.3,0,.3-.4v-10.5h-2.2v16.7c0,.4-1,1.1-2.3,1.1h-.5V14.4l2.8,1.2h2l1.2-1.4,2.5,2v.4Z"/>
        <path class="st3" d="M116.7,29.1c5.5,1.3,3,5.7.9,3.8,0-.8-.2-1.6-.4-2.3,0,0-.3,0-.6,0-.9,1.4-2.3,3-4,3.9l-.2-.2c.9-1.4,1.6-3.4,2-5h-1v-14.6l2.7,1.1h1l1.2-1.5,2.3,1.9c-.2.2-.4.4-.9.5v11.6c0,.2-.8.7-2.1.7h-.4v-1h-1.3v.8s-.2.3-.6.4l1.9.9c0-.4-.3-.7-.5-1h.2-.2ZM115.9,16.4v3.2h1.3v-3.2h-1.3ZM117.2,23.4v-3.2h-1.3v3.2h1.3ZM117.2,27.3v-3.3h-1.3v3.3h1.3ZM130.9,27.4s1,1.1,1.5,1.9c0,.2-.2.3-.5.3h-1.6v1.8c0,1.8-.3,2.7-3,3,0-.9-.1-1.5-.4-1.9-.3-.4-.6-.7-1.4-.8v-.3s1.6,0,1.9,0,.4,0,.4-.4v-1.5h-4.7v4c0,.3-1,.9-2.1.9h-.4v-4.9h-1l-.2-.6h1.2v-6.7l2.6,1.1h1v-1.5h-4.2l-.2-.6h2.2v-1.7h-1.6l-.2-.6h1.7v-1.7h-1.8l-.2-.6h1.9v-2.4l3.1.3c0,.3-.2.5-.6.5v1.6h1.7v-2.4l3.1.3c0,.3-.2.5-.6.5v1.6h.2l1-1.5s1.2,1.1,1.9,1.8c0,.2-.2.3-.5.3h-2.6v1.7h0l.9-1.3s1,.9,1.7,1.6c0,.2-.2.3-.5.3h-2.1v1.7h.2l1-1.5s1.2,1.1,1.9,1.8c0,.2-.2.3-.5.3h-4.7v1.5h1l1.1-1.3,2.4,1.9c-.1.2-.3.3-.7.4v4.1l.6-1.1h.1ZM123.1,24.1v2.2h1.1v-2.2h-1.1ZM123.1,29.1h1.1v-2.2h-1.1v2.2ZM124.4,19h1.7v-1.7h-1.7v1.7ZM124.4,21.4h1.7v-1.7h-1.7v1.7ZM126.7,24.1v2.2h1.2v-2.2h-1.2ZM127.7,29.1v-2.2h-1.2v2.2h1.2Z"/>
        <path class="st3" d="M135.4,34.2c2.7-1,5.6-2.8,7-4.3l3.1,2.3c-.2.2-.6.3-1.3.2-2,1.1-5.5,1.8-8.7,2.1v-.3h-.1ZM153.4,16c-.1.2-.3.3-.7.4v3.4c0,.1-1.5.6-2.3.6h-.2l1.7,1.4c-.1.1-.3.3-.7.4v7.4c0,.2-1.5.7-2.5.7h-.5v-.7h-6.8v.3c0,.3-1.3,1-2.5,1h-.4v-10.5c-.3.1-.7.2-1.1.2h-.4v-6.5l3,1.2h9.6l1.2-1.4,2.6,2h0ZM149.7,20.2v-.5h-10v.2c0,.1-.2.3-.6.4l2.3.9h6.4l1.3-1.5.6.5ZM139.7,16v3.1h1.5v-3.1h-1.5ZM148.2,21.8h-6.8v2h6.8v-2ZM141.4,26.4h6.8v-2h-6.8v2ZM148.2,29.1v-2.1h-6.8v2.1h6.8ZM143.9,16v3.1h1.5v-3.1h-1.5ZM145.4,30.7c12.4,0,7.1,5.4,4.6,3.2-.8-.9-2.3-2.2-4.7-3v-.2h0ZM148.2,16v3.1h1.5v-3.1h-1.5Z"/>
      </g>
    </g>
  </g>
</svg>