<?xml version="1.0" encoding="UTF-8"?>
<svg id="_圖層_1" data-name="圖層_1" xmlns="http://www.w3.org/2000/svg" xmlns:xlink="http://www.w3.org/1999/xlink" version="1.1" viewBox="0 0 221.8 50.5">
  <!-- Generator: Adobe Illustrator 30.0.0, SVG Export Plug-In . SVG Version: 2.1.1 Build 123)  -->
  <defs>
    <style>
      .st0 {
        fill: url(#_未命名的渐变_2);
      }

      .st1 {
        fill: url(#linear-gradient2);
      }

      .st2 {
        fill: url(#linear-gradient1);
      }

      .st3 {
        fill: url(#linear-gradient);
      }
    </style>
    <linearGradient id="linear-gradient" x1="41.5" y1="94.6" x2="219.8" y2="-83.6" gradientUnits="userSpaceOnUse">
      <stop offset="0" stop-color="#eedebc"/>
      <stop offset="0" stop-color="#ddc5a3"/>
      <stop offset=".1" stop-color="#c9a885"/>
      <stop offset=".3" stop-color="#9a7a5f"/>
      <stop offset=".4" stop-color="#c9a885"/>
      <stop offset=".5" stop-color="#eedebc"/>
      <stop offset=".5" stop-color="#ddc5a3"/>
      <stop offset=".6" stop-color="#c9a885"/>
      <stop offset=".7" stop-color="#9a7a5f"/>
      <stop offset=".8" stop-color="#c9a885"/>
      <stop offset="1" stop-color="#eedebc"/>
    </linearGradient>
    <linearGradient id="linear-gradient1" x1="-503.5" y1="736.8" x2="485.8" y2="-252.5" xlink:href="#linear-gradient"/>
    <linearGradient id="linear-gradient2" x1="-50.1" y1="92" x2="939.2" y2="-897.3" xlink:href="#linear-gradient"/>
    <linearGradient id="_未命名的渐变_2" data-name="未命名的渐变 2" x1="67.6" y1="24.5" x2="153.1" y2="24.5" gradientUnits="userSpaceOnUse">
      <stop offset="0" stop-color="#d0b962"/>
      <stop offset=".5" stop-color="#f7f7f7"/>
      <stop offset="1" stop-color="#d0b962"/>
    </linearGradient>
  </defs>
  <g>
    <path class="st3" d="M212.9,50.5H9c0,0-.2,0-.3,0-.1,0-1.3-.5-2-2-1.1-2.3-.9-5.9.8-10.6.9-2.6.9-5-.2-6.9-1.9-3.6-6.6-4.8-6.7-4.8C.3,26,0,25.6,0,25.3c0-.4.3-.7.6-.8,0,0,4.8-1.2,6.7-4.9,1-1.9,1.1-4.3.2-6.9-1.7-4.7-1.9-8.2-.8-10.6C7.4.5,8.6,0,8.7,0c0,0,.2,0,.3,0h203.9c0,0,.2,0,.3,0,.1,0,1.3.5,2,2,1.1,2.3.9,5.9-.8,10.6-.9,2.6-.9,5,.2,6.9,1.9,3.6,6.6,4.8,6.7,4.9.4,0,.6.4.6.8s-.3.7-.6.8c0,0-4.8,1.2-6.7,4.9-1,1.9-1.1,4.3-.2,6.9,1.7,4.7,1.9,8.2.8,10.6-.8,1.6-1.9,2-2,2,0,0-.2,0-.3,0ZM9.2,48.8h203.5c.5-.3,3-2.3.1-10.4-1.1-3.1-1-5.9.3-8.3,1.4-2.5,3.8-4.1,5.5-4.9-1.8-.8-4.2-2.3-5.5-4.9-1.3-2.4-1.4-5.2-.3-8.3,2.9-8.1.4-10.1-.1-10.4H9.1c-.5.3-3,2.3-.1,10.4,1.1,3.1,1,5.9-.3,8.3-1.4,2.5-3.8,4.1-5.5,4.9,1.8.8,4.2,2.3,5.5,4.9,1.3,2.4,1.4,5.2.3,8.3-2.9,8.1-.4,10.1.1,10.4Z"/>
    <g>
      <path class="st2" d="M208,6.4c.9.4,1.4,1.4,1.6,2.3.2.9.2,1.9,0,2.9-.1.9-.4,1.9-.6,2.8-.3.9-.6,1.8-.8,2.7-.3,1.8.1,3.8,1.4,5.2,1.2,1.4,2.9,2.3,4.7,2.9l.6.2-.6.2c-1.8.5-3.5,1.5-4.7,2.9-1.3,1.4-1.7,3.4-1.4,5.2.2.9.5,1.8.8,2.7.3.9.5,1.8.6,2.8.1.9.1,1.9,0,2.9-.2.9-.7,1.9-1.6,2.3.9-.4,1.3-1.4,1.5-2.3.2-.9.1-1.9,0-2.8-.2-.9-.4-1.9-.7-2.7-.3-.9-.6-1.8-.8-2.7-.3-1.9,0-4,1.4-5.4,1.3-1.5,3-2.5,4.8-3v.3c-1.8-.6-3.6-1.5-4.8-3-1.3-1.5-1.7-3.6-1.4-5.4.2-.9.5-1.9.8-2.7.3-.9.5-1.8.7-2.7.1-.9.2-1.9,0-2.8-.2-.9-.6-1.9-1.5-2.3Z"/>
      <path class="st1" d="M16.8,44.1c-.9-.4-1.4-1.4-1.6-2.3-.2-.9-.2-1.9,0-2.9.1-.9.4-1.9.6-2.8.3-.9.6-1.8.8-2.7.3-1.8-.1-3.8-1.4-5.2-1.2-1.4-2.9-2.3-4.7-2.9l-.6-.2.6-.2c1.8-.5,3.5-1.5,4.7-2.9,1.3-1.4,1.7-3.4,1.4-5.2-.2-.9-.5-1.8-.8-2.7-.3-.9-.5-1.8-.6-2.8-.1-.9-.1-1.9,0-2.9.2-.9.7-1.9,1.6-2.3-.9.4-1.3,1.4-1.5,2.3-.2.9-.1,1.9,0,2.8.2.9.4,1.9.7,2.7.3.9.6,1.8.8,2.7.3,1.9,0,4-1.4,5.4-1.3,1.5-3,2.5-4.8,3v-.3c1.8.6,3.6,1.5,4.8,3,1.3,1.5,1.7,3.6,1.4,5.4-.2.9-.5,1.9-.8,2.7-.3.9-.5,1.8-.7,2.7-.1.9-.2,1.9,0,2.8.2.9.6,1.9,1.5,2.3Z"/>
    </g>
  </g>
  <g>
    <path class="st0" d="M84.4,30.7s1.5,1.2,2.4,2c0,.2-.3.3-.6.3h-18.4l-.2-.6h10.3c1.1-3.4,2.3-8,2.9-11.2l3,.8c0,.3-.3.5-.8.5-.9,2.8-2.7,6.8-4.5,10h4.6l1.3-1.7ZM68.7,20l-.2-.6h14l1.2-1.7s1.5,1.1,2.3,1.9c0,.2-.3.3-.6.3h-16.8ZM71.5,21.3c5.7,5.8,4.1,11.8,1.9,9.5,0-3-1.2-6.7-2.2-9.4h.3ZM74.9,14.5c5.4,1.6,3.8,5.7,1.8,4.2-.2-1.4-1.2-3-2-4h.2Z"/>
    <path class="st0" d="M98.3,15.1l2,1.6c-.1.2-.5.3-.9.4v8.1c0,.1-.9.5-1.6.5h-.3v-1.3h-4.1v6c1.1-.5,2.4-1.1,3.8-1.7-.4-1-1-2-1.5-2.8h.2c5.7,3.4,3.9,8.1,2.1,6.2,0-.9-.3-2-.6-2.9-1.2.9-2.8,2.2-4.7,3.5-.2.3-.4.6-.6.7l-1.2-2.3c.5-.3.6-.5.6-1v-15l2.1.9h3.6l.9-1.1ZM97.6,20v-3.2h-4.1v3.2h4.1ZM97.6,23.9v-3.3h-4.1v3.3h4.1ZM109.1,16.8c-.1.2-.4.3-.8.4v11c0,1.4-.3,2.3-2.5,2.5,0-.7-.1-1.2-.4-1.5-.3-.3-.7-.6-1.5-.7v-.3s1.7.1,2.1.1.4-.1.4-.4v-11.1h-3.4v16.9c0,.3-.7.8-1.5.8h-.3V15.3l1.9.9h3.1l.9-1.1,2,1.6Z"/>
    <path class="st0" d="M115.3,29s0,.2-.2.2l1.9.9c-.1.2-.3.3-.8.3-.7,1.3-2,3-3.5,4l-.2-.3c1-1.3,1.8-3.3,2.2-4.8-.2,0-.5.1-.8.1h-.3v-14.4l1.9.8h1.8l.9-1.1,1.8,1.5c-.2.2-.4.3-.8.4v12c0,.1-.6.5-1.5.5h-.3v-1h-2.1v.8ZM115.3,16.6v3.2h2.1v-3.2h-2.1ZM117.4,23.7v-3.2h-2.1v3.2h2.1ZM117.4,27.6v-3.3h-2.1v3.3h2.1ZM116.8,29.2c4.4,1.8,2.7,5.2,1.1,3.8,0-1.2-.7-2.7-1.3-3.7h.2ZM130.6,28.2s.9.9,1.4,1.6c0,.2-.2.3-.5.3h-1.7v2c0,1.3-.2,2.1-2.4,2.3,0-.6-.1-1-.4-1.3-.3-.3-.7-.5-1.6-.6v-.3s1.8.1,2.2.1.4-.1.4-.4v-1.8h-5.7v3.8c0,.2-.7.6-1.4.6h-.3v-4.4h-1.3v-.6c-.1,0,1.3,0,1.3,0v-6.5l1.8.8h1.9v-1.5h-4.8l-.2-.6h2.8v-1.8h-2l-.2-.6h2.2v-1.7h-2.3l-.2-.6h2.5v-2.3l2.4.2c0,.3-.2.5-.6.5v1.5h2.4v-2.3l2.3.2c0,.3-.2.5-.6.5v1.5h.6l.9-1.3s1.1.9,1.7,1.6c0,.2-.2.3-.5.3h-2.7v1.7h.6l.8-1.1s.9.8,1.5,1.4c0,.2-.2.3-.5.3h-2.4v1.8h.9l.9-1.3s1.1.9,1.7,1.6c0,.2-.2.3-.5.3h-5.1v1.5h1.9l.8-1,1.9,1.5c-.1.2-.4.3-.8.4v4.6l.7-1.2ZM122.4,24.5v2.2h2v-2.2h-2ZM122.4,29.5h2v-2.2h-2v2.2ZM124,19.3h2.4v-1.7h-2.4v1.7ZM124,21.7h2.4v-1.8h-2.4v1.8ZM126,24.5v2.2h2v-2.2h-2ZM128.1,29.5v-2.2h-2v2.2h2Z"/>
    <path class="st0" d="M135.6,34.1c2.6-.8,5.4-2.4,6.8-3.6l2.3,1.7c-.2.2-.6.3-1.1.1-1.8.9-4.9,1.8-7.8,2.1v-.3ZM139,20.3c0,.2-.8.6-1.6.6h-.3v-6l2,.9h11.1l.9-1,2,1.5c-.1.2-.4.3-.8.4v3.5c0,.1-1,.5-1.6.5h-.3v-.8h-11.4v.4ZM148.8,30.9v-.8h-8.2v.5c0,.2-.8.6-1.6.6h-.3v-10.7l2,.9h7.9l.9-1.1,1.9,1.6c-.1.2-.4.3-.8.4v7.9c0,.2-1,.6-1.6.6h-.3ZM139,16.4v2.9h2.6v-2.9h-2.6ZM140.6,22.1v2h8.2v-2h-8.2ZM148.8,24.8h-8.2v2h8.2v-2ZM148.8,29.5v-2.1h-8.2v2.1h8.2ZM143.3,16.4v2.9h2.6v-2.9h-2.6ZM145.7,31.1c10.6.5,7.1,4.5,5.2,3-1-.9-2.7-2-5.2-2.7v-.3ZM147.8,16.4v2.9h2.6v-2.9h-2.6Z"/>
  </g>
</svg>