<?xml version="1.0" encoding="UTF-8"?>
<svg id="_圖層_1" data-name="圖層_1" xmlns="http://www.w3.org/2000/svg" xmlns:xlink="http://www.w3.org/1999/xlink" version="1.1" viewBox="0 0 947 49.5">
  <!-- Generator: Adobe Illustrator 30.0.0, SVG Export Plug-In . SVG Version: 2.1.1 Build 123)  -->
  <defs>
    <style>
      .st0 {
        fill: url(#_未命名的渐变_2);
      }

      .st1 {
        fill: #002a34;
      }

      .st2 {
        fill: #005bab;
      }

      .st3 {
        fill: url(#_未命名的渐变_23);
      }

      .st4 {
        fill: url(#_未命名的渐变_27);
      }

      .st5 {
        fill: url(#_未命名的渐变_21);
      }

      .st6 {
        fill: url(#_未命名的渐变_26);
      }

      .st7 {
        fill: url(#_未命名的渐变_22);
      }

      .st8 {
        fill: url(#_未命名的渐变_24);
      }

      .st9 {
        fill: url(#_未命名的渐变_25);
      }
    </style>
    <linearGradient id="_未命名的渐变_2" data-name="未命名的渐变 2" x1="0" y1="25.8" x2="242.4" y2="25.8" gradientUnits="userSpaceOnUse">
      <stop offset="0" stop-color="#d0b962"/>
      <stop offset=".5" stop-color="#f7f7f7"/>
      <stop offset="1" stop-color="#d0b962"/>
    </linearGradient>
    <linearGradient id="_未命名的渐变_21" data-name="未命名的渐变 2" x1="6759.2" y1="25.8" x2="7001.6" y2="25.8" gradientTransform="translate(7706.1) rotate(-180) scale(1 -1)" xlink:href="#_未命名的渐变_2"/>
    <linearGradient id="_未命名的渐变_22" data-name="未命名的渐变 2" x1="246.7" y1="33.6" x2="449.3" y2="33.6" xlink:href="#_未命名的渐变_2"/>
    <linearGradient id="_未命名的渐变_23" data-name="未命名的渐变 2" x1="703.9" y1="33.6" x2="501.3" y2="33.6" xlink:href="#_未命名的渐变_2"/>
    <linearGradient id="_未命名的渐变_24" data-name="未命名的渐变 2" x1="-1048.8" y1="-4498.6" x2="-1036.9" y2="-4498.6" gradientTransform="translate(4399.7 2427.3) rotate(-45.6)" xlink:href="#_未命名的渐变_2"/>
    <linearGradient id="_未命名的渐变_25" data-name="未命名的渐变 2" x1="-1031.9" y1="-4476.2" x2="-1008.8" y2="-4476.2" gradientTransform="translate(4399.7 2427.3) rotate(-45.6)" xlink:href="#_未命名的渐变_2"/>
    <linearGradient id="_未命名的渐变_26" data-name="未命名的渐变 2" x1="-1039.3" y1="-4490.9" x2="-1016.8" y2="-4490.9" gradientTransform="translate(4399.7 2427.3) rotate(-45.6)" xlink:href="#_未命名的渐变_2"/>
    <linearGradient id="_未命名的渐变_27" data-name="未命名的渐变 2" x1="-1048" y1="-4476.2" x2="-1037.7" y2="-4476.2" gradientTransform="translate(4399.7 2427.3) rotate(-45.6)" xlink:href="#_未命名的渐变_2"/>
  </defs>
  <g>
    <g>
      <path class="st0" d="M148.1,27.7c-1.1-.3-2.2-.5-3.3-.8-5.3-1.2-10.7-2.6-16-3.9-10.7-2.6-21.5-5.4-32.5-7.6-11-2.1-22.1-3.8-33.4-4.1-2.8,0-5.6,0-8.5,0-2.8.1-5.6.3-8.5.7-5.6.7-11.2,1.8-16.6,3.4-10.8,3.3-20.9,8.7-29.4,15.9,9.4-5.9,19.6-10.3,30.2-12.5,10.6-2.3,21.6-2.6,32.4-1.8,10.8.9,21.6,2.9,32.2,5.4,4.1,1,8.3,2,12.4,3.1l11,2.9c2.9.8,5.8,1.6,8.6,2.3,5.4,1.4,10.8,2.8,16.2,4.1,5.5,1.2,10.9,2.4,16.5,3.3,5.6.9,11.2,1.6,16.9,1.8,2.8.1,5.7.1,8.5.1,2.8,0,5.6,0,8.4-.2,11.2-.4,22.8-1.9,33.4-6.4,5.3-2.2,8.4-3.5,12.6-7.5h0c.6-.6,1.2-1.3,1.9-2.4,1.3-2.1,1.6-4.5,1-7.1-.8-3.4-4.4-3.6-6.3-2.8-2.2.9-2.6,3.9-2.6,3.9,5.1-1,6,4.2,2.8,6.3-3.4,2.2-7.1,4.1-11,5.4-5,1.8-10.3,2.8-15.7,3.4-5.3.6-10.7.7-16.2.6-2.7,0-5.4-.2-8.2-.4-2.8-.2-5.5-.2-8.1-.5-4.9-.5-9.8-1.2-14.7-2l-14-2.9Z"/>
      <path class="st5" d="M798.8,27.7c1.1-.3,2.2-.5,3.3-.8,5.3-1.2,10.7-2.6,16-3.9,10.7-2.6,21.5-5.4,32.5-7.6,11-2.1,22.1-3.8,33.4-4.1,2.8,0,5.6,0,8.5,0,2.8.1,5.6.3,8.5.7,5.6.7,11.2,1.8,16.6,3.4,10.8,3.3,20.9,8.7,29.4,15.9-9.4-5.9-19.6-10.3-30.2-12.5-10.6-2.3-21.6-2.6-32.4-1.8-10.8.9-21.6,2.9-32.2,5.4-4.1,1-8.3,2-12.4,3.1l-11,2.9c-2.9.8-5.8,1.6-8.6,2.3-5.4,1.4-10.8,2.8-16.2,4.1-5.5,1.2-10.9,2.4-16.5,3.3-5.6.9-11.2,1.6-16.9,1.8-2.8.1-5.7.1-8.5.1-2.8,0-5.6,0-8.4-.2-11.2-.4-22.8-1.9-33.4-6.4-5.3-2.2-8.4-3.5-12.6-7.5h0c-.6-.6-1.2-1.3-1.9-2.4-1.3-2.1-1.6-4.5-1-7.1.8-3.4,4.4-3.6,6.3-2.8,2.2.9,2.6,3.9,2.6,3.9-5.1-1-6,4.2-2.8,6.3,3.4,2.2,7.1,4.1,11,5.4,5,1.8,10.3,2.8,15.7,3.4,5.3.6,10.7.7,16.2.6,2.7,0,5.4-.2,8.2-.4,2.8-.2,5.5-.2,8.1-.5,4.9-.5,9.8-1.2,14.7-2l14-2.9Z"/>
    </g>
    <path class="st7" d="M448,29.5c-8.3-2.8-16.9-4.2-25.4-4.8-8.6-.5-17.2-.3-25.7.6-4.3.4-8.5,1-12.7,1.8-4.2.8-8.4,1.7-12.6,2.7-8.4,2-16.7,4.5-25.1,6.9-4.2,1.2-8.4,2.4-12.7,3.5-4.3,1.1-8.6,2.1-12.9,2.9-8.7,1.7-17.4,2.9-26.2,3.5-8.8.6-17.7.5-26.4-.2-2.2-.2-4.4-.5-6.6-.9-2.2-.5-4.4-1-6.5-2.1-1-.5-2-1.1-2.9-1.9-.9-.8-1.6-1.7-2.1-2.8-.5-1.1-.6-2.3-.3-3.4.3-1.1,1.2-2,2.1-2.6-.8.7-1.5,1.6-1.6,2.7-.2,1,.1,2,.7,2.9.5.9,1.3,1.6,2.1,2.2.8.6,1.8,1,2.8,1.3,2,.7,4,1.1,6.1,1.3,2.1.2,4.2.3,6.4.2,8.6,0,17.3-.6,25.8-1.6,8.5-1.1,17-2.5,25.4-4.5,8.4-1.9,16.7-4.2,25.1-6.6,4.2-1.2,8.4-2.4,12.6-3.5,4.2-1.1,8.5-2.2,12.8-3.1,8.6-1.9,17.5-3.1,26.3-3.5,8.8-.4,17.7,0,26.5,1.3,8.7,1.4,17.3,3.8,25.1,7.9Z"/>
    <path class="st3" d="M502.6,29.5c7.7-4.1,16.4-6.5,25.1-7.9,8.7-1.4,17.6-1.7,26.5-1.3,8.8.4,17.7,1.6,26.3,3.5,4.3.9,8.6,2,12.8,3.1,4.2,1.1,8.4,2.3,12.6,3.5,8.4,2.4,16.7,4.7,25.1,6.6,8.4,1.9,16.9,3.4,25.4,4.5,8.5,1.1,17.2,1.6,25.8,1.6,2.2,0,4.3,0,6.4-.2,2.1-.2,4.2-.6,6.1-1.3,1-.4,1.9-.8,2.8-1.3.8-.6,1.6-1.3,2.1-2.2.5-.9.8-1.9.7-2.9-.1-1-.8-2-1.6-2.7.9.6,1.8,1.4,2.1,2.6.3,1.1.2,2.4-.3,3.4-.5,1.1-1.2,2-2.1,2.8-.9.8-1.9,1.4-2.9,1.9-2.1,1-4.3,1.6-6.5,2.1-2.2.4-4.4.7-6.6.9-8.8.8-17.6.8-26.4.2-8.8-.6-17.6-1.8-26.2-3.5-4.3-.9-8.6-1.9-12.9-2.9-4.3-1.1-8.5-2.3-12.7-3.5-8.4-2.4-16.7-4.8-25.1-6.9-4.2-1-8.4-1.9-12.6-2.7-4.2-.7-8.5-1.3-12.7-1.8-8.5-.9-17.2-1.1-25.7-.6-8.6.5-17.2,2-25.4,4.8Z"/>
  </g>
  <g>
    <path class="st8" d="M464.3,31.8c-2.9-.4-7.6-2.4-9.7-4.5-4.8-4.7-6.3-10.1-5.2-13.4,3.3-1.2,8.7.2,13.5,4.9,2.1,2.1,4.3,6.7,4.7,9.6"/>
    <path class="st9" d="M483,31.6c2.9-.4,7.5-2.6,9.6-4.7,4.7-4.8,6.1-10.3,4.9-13.5-3.3-1.1-8.7.4-13.4,5.2-2.1,2.1-4.1,6.7-4.5,9.7"/>
    <path class="st6" d="M473.3,1c1.7,1.5,5.4,5.2,6.6,11,.9,4.3.2,8.7-1.5,16h-4.8q0,.1,0,.1h0s-4.8,0-4.8,0c-1.9-7.3-2.6-11.7-1.8-16,1.1-5.8,4.7-9.6,6.4-11.1h0s0,0,0,0h0s0,0,0,0Z"/>
    <path class="st2" d="M465.7,29.8c-1,1-1.6,2.4-1.8,4-1.9,2.5-1.9,5.7,0,8.1.4,3.1,2.6,5.3,5.8,5.7,2.5,1.9,5.7,1.9,8.1,0,1.5-.2,2.9-.8,3.9-1.9s1.6-2.4,1.8-4c1.9-2.5,1.9-5.7,0-8.1-.4-3.1-2.6-5.3-5.8-5.7-2.5-1.9-5.7-1.9-8.1,0-1.5.2-2.9.8-3.9,1.9Z"/>
    <circle class="st4" cx="473.7" cy="37.8" r="5.2"/>
  </g>
  <g>
    <path class="st1" d="M448.7,13.2s0,0,0,0c-1.1,3.2.1,8.8,5.4,14,2.1,2,6.9,4.3,10,4.6.1,0,.2,0,.3-.2,0-.1,0-.2-.2-.3-3.1-.4-7.7-2.5-9.8-4.5-5-4.9-6.3-10.3-5.3-13.4,3.1-1,8.4,0,13.5,5,2,2,4.3,6.6,4.7,9.7,0,.1.1.2.3.2.1,0,.2-.1.2-.3-.4-3.2-2.7-7.9-4.8-9.9-5.2-5.1-10.8-6.3-14.1-5.1,0,0,0,0,0,0Z"/>
    <path class="st1" d="M484.2,18.1c-2,2.1-4.3,6.9-4.6,10,0,.1,0,.2.2.3s.2,0,.3-.2c.4-3.1,2.5-7.7,4.5-9.8,4.9-5,10.3-6.3,13.4-5.3,1,3.1,0,8.4-5,13.5s-6.6,4.3-9.7,4.7c-.1,0-.2.1-.2.3,0,.1.1.2.3.2,3.2-.4,7.9-2.7,9.9-4.8,5.1-5.2,6.3-10.8,5.1-14.1,0,0,0-.1-.1-.1-3.2-1.1-8.8.1-14,5.4Z"/>
    <path class="st1" d="M473.6,28.1,473.3.2h0s0,0,0,0ZM478.7,27.8c1.7-7.1,2.5-11.9,1.6-16.5-1.2-5.8-4.8-9.6-6.8-11.3,0,0-.2,0-.3,0-.3.3-.6.6-1,1-2,2-4.7,5.6-5.6,10.5-.8,4.6,0,9.3,1.9,16.4l.4-.3c-1.8-6.9-2.7-11.6-1.8-16.1,1-5.5,4.3-9.3,6.3-11.1,2,1.8,5.4,5.4,6.5,10.9.9,4.5.2,9.1-1.5,16.1l.4.3Z"/>
    <path class="st1" d="M481.7,45.7c1-1,1.6-2.3,1.8-4,2-2.6,1.9-5.8,0-8.1-.3-3.1-2.5-5.3-5.8-5.7-2.6-2-5.8-1.9-8.1,0-1.5.2-2.9.8-3.9,1.8-1,1-1.6,2.3-1.8,4-2,2.6-1.9,5.8,0,8.1.3,3.1,2.5,5.3,5.8,5.7,2.6,2,5.8,1.9,8.1,0,1.5-.2,2.9-.8,3.9-1.8M482.1,46h0c-1.1,1.1-2.4,1.7-4,2-2.5,2-5.8,2.1-8.5,0-3.3-.4-5.6-2.7-6.1-5.9-2-2.5-2.1-5.8,0-8.5.2-1.6.9-3,1.9-4.1s2.4-1.7,4-2c2.5-2,5.8-2.1,8.5,0,3.3.4,5.6,2.7,6.1,5.9,2,2.5,2.1,5.8,0,8.5-.2,1.6-.9,3-1.9,4.1h0Z"/>
    <path class="st1" d="M469.8,33.9c-2.1,2.2-2.1,5.7,0,7.8,2.2,2.1,5.7,2.1,7.8,0,2.1-2.2,2.1-5.7,0-7.8-2.2-2.1-5.7-2.1-7.8,0ZM477.3,41.3c-1.9,2-5.1,2-7.1,0s-2-5.1,0-7.1,5.1-2,7.1,0,2,5.1,0,7.1Z"/>
    <path class="st1" d="M473.2,13c0,1.8,0,3.5,0,5.5,0,2.1,0,5.4.2,7.5s.5.6.5,0c0-3,0-5.7,0-7.8,0-2,0-4-.1-5.2-.1-2-.5-1.8-.5,0Z"/>
  </g>
</svg>