<?xml version="1.0" encoding="UTF-8"?>
<svg id="_圖層_1" data-name="圖層_1" xmlns="http://www.w3.org/2000/svg" xmlns:xlink="http://www.w3.org/1999/xlink" version="1.1" viewBox="0 0 36.7 38.6">
  <!-- Generator: Adobe Illustrator 30.0.0, SVG Export Plug-In . SVG Version: 2.1.1 Build 123)  -->
  <defs>
    <style>
      .st0 {
        filter: url(#drop-shadow-1);
      }

      .st1 {
        fill: #dbd7c6;
      }
    </style>
    <filter id="drop-shadow-1" x="0" y="0" width="36.7" height="38.6" filterUnits="userSpaceOnUse">
      <feOffset dx="7" dy="7"/>
      <feGaussianBlur result="blur" stdDeviation="5"/>
      <feFlood flood-color="#000" flood-opacity=".8"/>
      <feComposite in2="blur" operator="in"/>
      <feComposite in="SourceGraphic"/>
    </filter>
  </defs>
  <g class="st0">
    <path class="st1" d="M12.9,38.6c-.3,0-.6,0-.8,0h-.8c-2.5,0-4.6-.4-6.3-1.3-1.7-.9-2.9-2-3.7-3.3-.8-1.4-1.2-2.8-1.2-4.3s.6-3.7,1.8-5.5c1.2-1.8,3-3.2,5.3-4.1,1.4-.5,2.7-.9,3.9-1s2.4-.2,3.5-.2c1.1,0,2,0,2.7-.2-1-.9-1.9-2-2.9-3.2-1-1.3-1.8-2.7-2.5-4.2s-1-3-1-4.5,0-1.3.2-2c.2-.6.4-1.2.8-1.8.4-.6,1.1-1.2,2.1-1.6.9-.4,2-.8,3.1-1s2.2-.4,3.2-.4,2.5.3,3.7.9,2.2,1.4,3,2.4c.3-.4.7-.8,1.1-1.1.4-.3.8-.5,1.3-.6,0,0,.2,0,.4,0,.3,0,.6,0,.8.2.2.1.3.3.3.6s-.1.4-.4.6c-.2.3-.5.5-.9.8-.4.3-.8.7-1.3,1.1-.6.5-1.1,1.2-1.5,1.9-.4.7-.7,1.4-.7,2.1s.1.8.4,1.2c0,0,0,.1,0,.2,0,.2-.1.3-.4.3s-.4-.1-.6-.3c-.2-.3-.3-.9-.3-1.9s0-1.2.2-1.9c.1-.7.3-1.2.6-1.8,0,0,0,0,0-.2,0,0,0-.1,0-.2-.6-.8-1.5-1.4-2.7-2.1-1.1-.6-2.3-.9-3.5-.9s-.9,0-1.3.2c-1.4.3-2.3,1-2.8,2s-.8,2.2-.8,3.6.2,2.5.5,3.8c.3,1.3.8,2.6,1.3,3.7.5,1.1,1,2.1,1.6,2.8.5.7.7,1.2.7,1.4s-.4.6-1.1.7c-1.8.2-3.6.7-5.4,1.3-1.7.7-3.1,1.3-4.2,1.8-1.8,1-3.2,2.1-4.1,3.5-.9,1.4-1.4,2.8-1.4,4.1s.8,3.4,2.3,4.8c1.5,1.4,3.7,2,6.5,2h.8c.3,0,.6,0,.8,0,2.4-.3,4.8-.9,7-1.8,2.2-1,4.2-2.4,5.9-4.2,1.7-1.8,3-4.2,3.8-7,.2-.6.3-1.2.4-1.8,0-.6,0-1.2,0-1.8s0-1.1,0-1.6c0-.5-.1-.8-.3-1-1.2.7-2.4,1.4-3.6,2.1-1.3.7-2.4,1.4-3.5,2.1-.6.3-1.3,1-2.2,1.9-.9.9-1.8,1.9-2.5,2.9-.7,1-1.1,2-1.1,2.9s.2,1.1.7,1.5c.3.3.5.5.5.8s-.1.2-.3.2-.3,0-.5-.1c-.5-.2-.9-.6-1.2-1.3-.3-.7-.4-1.5-.4-2.5s.2-2.5.7-3.5c.4-.9,1.1-1.6,1.9-2.3s1.8-1.3,3-2c1.4-.9,3-1.7,4.6-2.6,1.6-.8,3.2-1.6,4.6-2.4,1.4-.8,2.6-1.6,3.5-2.3.9-.8,1.4-1.6,1.4-2.4v-.4c0-.1,0-.3-.1-.4,0,0,0,0,0,0,0,0,0,0,0,0,0-.2,0-.3.2-.3.2,0,.4.1.5.4.2.4.2.8.2,1.3,0,1.1-.5,2.2-1.6,3.2-1.1,1-2.4,2-4,3,.4.5.9,1.3,1.4,2.3.5,1.1.8,2.1.8,3.2v.5c0,.1,0,.3,0,.5-.4,2.4-1.3,4.5-2.7,6.3-1.4,1.7-3.1,3.2-5.1,4.3-2,1.2-4.1,2-6.3,2.6-2.2.6-4.3,1-6.2,1.2Z"/>
  </g>
</svg>