<?xml version="1.0" encoding="UTF-8"?>
<svg id="_圖層_1" data-name="圖層_1" xmlns="http://www.w3.org/2000/svg" xmlns:xlink="http://www.w3.org/1999/xlink" version="1.1" viewBox="0 0 610.8 610.8">
  <!-- Generator: Adobe Illustrator 30.0.0, SVG Export Plug-In . SVG Version: 2.1.1 Build 123)  -->
  <defs>
    <style>
      .st0 {
        fill: url(#_未命名的渐变_2);
      }

      .st1 {
        fill: url(#_未命名的渐变_23);
      }

      .st2 {
        fill: url(#_未命名的渐变_27);
      }

      .st3 {
        fill: url(#_未命名的渐变_21);
      }

      .st4 {
        fill: url(#_未命名的渐变_26);
      }

      .st5 {
        fill: url(#_未命名的渐变_22);
      }

      .st6 {
        fill: url(#_未命名的渐变_24);
      }

      .st7 {
        fill: url(#_未命名的渐变_25);
      }
    </style>
    <linearGradient id="_未命名的渐变_2" data-name="未命名的渐变 2" x1="3151.9" y1="3299.7" x2="3368.5" y2="3299.7" gradientTransform="translate(3853.8 3673.9) rotate(-90) scale(1 -1)" gradientUnits="userSpaceOnUse">
      <stop offset="0" stop-color="#d0b962"/>
      <stop offset=".5" stop-color="#f7f7f7"/>
      <stop offset="1" stop-color="#d0b962"/>
    </linearGradient>
    <linearGradient id="_未命名的渐变_21" data-name="未命名的渐变 2" x1="3138.8" y1="3299.7" x2="3355.4" y2="3299.7" gradientTransform="translate(3853.8 -3050) rotate(90)" xlink:href="#_未命名的渐变_2"/>
    <linearGradient id="_未命名的渐变_22" data-name="未命名的渐变 2" x1="3151.9" y1="-3809.5" x2="3368.5" y2="-3809.5" gradientTransform="translate(3866.3 3673.9) rotate(-90)" xlink:href="#_未命名的渐变_2"/>
    <linearGradient id="_未命名的渐变_23" data-name="未命名的渐变 2" x1="3138.8" y1="-3809.5" x2="3355.4" y2="-3809.5" gradientTransform="translate(3866.3 -3050) rotate(90) scale(1 -1)" xlink:href="#_未命名的渐变_2"/>
    <linearGradient id="_未命名的渐变_24" data-name="未命名的渐变 2" x1="6659.9" y1="-159.4" x2="6876.4" y2="-159.4" gradientTransform="translate(7181.9 216.2) rotate(-180) scale(1 -1)" xlink:href="#_未命名的渐变_2"/>
    <linearGradient id="_未命名的渐变_25" data-name="未命名的渐变 2" x1="-369.2" y1="-159.4" x2="-152.6" y2="-159.4" gradientTransform="translate(458 216.2)" xlink:href="#_未命名的渐变_2"/>
    <linearGradient id="_未命名的渐变_26" data-name="未命名的渐变 2" x1="6659.9" y1="-350.4" x2="6876.4" y2="-350.4" gradientTransform="translate(7181.9 203.7) rotate(-180)" xlink:href="#_未命名的渐变_2"/>
    <linearGradient id="_未命名的渐变_27" data-name="未命名的渐变 2" x1="-369.1" y1="-350.4" x2="-152.6" y2="-350.4" gradientTransform="translate(458 203.7) scale(1 -1)" xlink:href="#_未命名的渐变_2"/>
  </defs>
  <g>
    <path class="st0" d="M594.6,305.4s26.8,18.2,11.4,56.5c-15.5,38.2-69.3,57.3-89.2,94.7-12.6,23.7-5.4,51.3,4.5,53.6,13,3,12-7.1,12-7.1,0,0,8.6.6,9.6,8.4,1,7.8-8.5,13.2-18.3,9.3-9.8-3.9-36.1-22.9-24.6-76.2,4.8-22.4,23.3-44.7,44.9-61.1,29.7-22.6,62.6-39.4,49.6-78Z"/>
    <path class="st3" d="M594.6,305.4s26.8-18.2,11.4-56.5c-15.5-38.2-69.3-57.3-89.2-94.7-12.6-23.7-5.4-51.3,4.5-53.6,13-3,12,7.1,12,7.1,0,0,8.6-.6,9.6-8.4,1-7.8-8.5-13.2-18.3-9.3-9.8,3.9-36.1,22.9-24.6,76.2,4.8,22.4,23.3,44.7,44.9,61.1,29.7,22.6,62.6,39.4,49.6,78Z"/>
  </g>
  <g>
    <path class="st5" d="M16.2,305.4s-26.8,18.2-11.4,56.5c15.5,38.2,69.3,57.3,89.2,94.7,12.6,23.7,5.4,51.3-4.5,53.6-13,3-12-7.1-12-7.1,0,0-8.6.6-9.6,8.4-1,7.8,8.5,13.2,18.3,9.3,9.8-3.9,36.1-22.9,24.6-76.2-4.8-22.4-23.3-44.7-44.9-61.1-29.7-22.6-62.6-39.4-49.6-78Z"/>
    <path class="st1" d="M16.2,305.4s-26.8-18.2-11.4-56.5c15.5-38.2,69.3-57.3,89.2-94.7,12.6-23.7,5.4-51.3-4.5-53.6-13-3-12,7.1-12,7.1,0,0-8.6-.6-9.6-8.4-1-7.8,8.5-13.2,18.3-9.3,9.8,3.9,36.1,22.9,24.6,76.2-4.8,22.4-23.3,44.7-44.9,61.1-29.7,22.6-62.6,39.4-49.6,78Z"/>
  </g>
  <g>
    <path class="st6" d="M305.4,16.2s18.2-26.8,56.5-11.4c38.2,15.5,57.3,69.3,94.7,89.2,23.7,12.6,51.3,5.4,53.6-4.5s-7.1-12-7.1-12c0,0,.6-8.6,8.4-9.6,7.8-1,13.2,8.5,9.3,18.3-3.9,9.8-22.9,36.1-76.2,24.6-22.4-4.8-44.7-23.3-61.1-44.9-22.6-29.7-39.4-62.6-78-49.6Z"/>
    <path class="st7" d="M305.4,16.2s-18.2-26.8-56.5-11.4c-38.2,15.5-57.3,69.3-94.7,89.2-23.7,12.6-51.3,5.4-53.6-4.5-3-13,7.1-12,7.1-12,0,0-.6-8.6-8.4-9.6-7.8-1-13.2,8.5-9.3,18.3,3.9,9.8,22.9,36.1,76.2,24.6,22.4-4.8,44.7-23.3,61.1-44.9,22.6-29.7,39.4-62.6,78-49.6Z"/>
  </g>
  <g>
    <path class="st4" d="M305.4,594.6s18.2,26.8,56.5,11.4c38.2-15.5,57.3-69.3,94.7-89.2,23.7-12.6,51.3-5.4,53.6,4.5,3,13-7.1,12-7.1,12,0,0,.6,8.6,8.4,9.6,7.8,1,13.2-8.5,9.3-18.3-3.9-9.8-22.9-36.1-76.2-24.6-22.4,4.8-44.7,23.3-61.1,44.9-22.6,29.7-39.4,62.6-78,49.6Z"/>
    <path class="st2" d="M305.4,594.6s-18.2,26.8-56.5,11.4c-38.2-15.5-57.3-69.3-94.7-89.2-23.7-12.6-51.3-5.4-53.6,4.5-3,13,7.1,12,7.1,12,0,0-.6,8.6-8.4,9.6-7.8,1-13.2-8.5-9.3-18.3,3.9-9.8,22.9-36.1,76.2-24.6,22.4,4.8,44.7,23.3,61.1,44.9,22.6,29.7,39.4,62.6,78,49.6Z"/>
  </g>
</svg>