<?xml version="1.0" encoding="UTF-8"?>
<svg id="_圖層_1" data-name="圖層_1" xmlns="http://www.w3.org/2000/svg" xmlns:xlink="http://www.w3.org/1999/xlink" version="1.1" viewBox="0 0 610.8 610.8">
  <!-- Generator: Adobe Illustrator 30.0.0, SVG Export Plug-In . SVG Version: 2.1.1 Build 123)  -->
  <defs>
    <style>
      .st0 {
        fill: none;
      }

      .st1 {
        fill: #1a180c;
        opacity: .7;
      }

      .st2 {
        clip-path: url(#clippath);
      }
    </style>
    <clipPath id="clippath">
      <path class="st0" d="M98.1,512.5c10.2-10.4,20.3-30.9,12.3-67.8-4.8-22.4-23.4-44.8-44.9-61.2-29.7-22.7-62.6-39.5-49.7-78h0c-13-38.6,20-55.4,49.7-78.1,21.6-16.4,40.1-38.7,44.9-61.2,7.9-36.9-2.1-57.4-12.3-67.8l.3-.3c10.4,10.2,30.9,20.3,67.8,12.3,22.4-4.8,44.8-23.4,61.2-44.9,22.7-29.7,39.5-62.7,78.1-49.7,38.6-13,55.4,20,78.1,49.7,16.4,21.6,38.7,40.1,61.2,44.9,36.9,7.9,57.4-2.1,67.8-12.3l.3.3c-10.2,10.4-20.3,30.9-12.3,67.8,4.8,22.4,23.4,44.8,44.9,61.2,29.7,22.7,62.6,39.5,49.7,78.1,13,38.6-19.9,55.4-49.7,78.1-21.6,16.4-40.1,38.7-44.9,61.2-8,36.9,2.1,57.4,12.3,67.8l-.3.3c-10.4-10.2-30.9-20.3-67.8-12.3-22.4,4.8-44.8,23.4-61.2,44.9-22.7,29.7-39.5,62.6-78.1,49.7-38.6,13-55.4-19.9-78.1-49.7-16.4-21.6-38.7-40.1-61.2-44.9-36.9-8-57.4,2.1-67.8,12.3l-.3-.3Z"/>
    </clipPath>
  </defs>
  <g class="st2">
    <path class="st1" d="M98.1,512.5c10.2-10.4,20.3-30.9,12.3-67.8-4.8-22.4-23.4-44.8-44.9-61.2-29.7-22.7-62.6-39.5-49.7-78h0c-13-38.6,20-55.4,49.7-78.1,21.6-16.4,40.1-38.7,44.9-61.2,7.9-36.9-2.1-57.4-12.3-67.8l.3-.3c10.4,10.2,30.9,20.3,67.8,12.3,22.4-4.8,44.8-23.4,61.2-44.9,22.7-29.7,39.5-62.7,78.1-49.7,38.6-13,55.4,20,78.1,49.7,16.4,21.6,38.7,40.1,61.2,44.9,36.9,7.9,57.4-2.1,67.8-12.3l.3.3c-10.2,10.4-20.3,30.9-12.3,67.8,4.8,22.4,23.4,44.8,44.9,61.2,29.7,22.7,62.6,39.5,49.7,78.1,13,38.6-19.9,55.4-49.7,78.1-21.6,16.4-40.1,38.7-44.9,61.2-8,36.9,2.1,57.4,12.3,67.8l-.3.3c-10.4-10.2-30.9-20.3-67.8-12.3-22.4,4.8-44.8,23.4-61.2,44.9-22.7,29.7-39.5,62.6-78.1,49.7-38.6,13-55.4-19.9-78.1-49.7-16.4-21.6-38.7-40.1-61.2-44.9-36.9-8-57.4,2.1-67.8,12.3l-.3-.3Z"/>
  </g>
</svg>