<?xml version="1.0" encoding="UTF-8"?>
<svg id="_圖層_1" data-name="圖層_1" xmlns="http://www.w3.org/2000/svg" xmlns:xlink="http://www.w3.org/1999/xlink" version="1.1" viewBox="0 0 159 34.7">
  <!-- Generator: Adobe Illustrator 30.0.0, SVG Export Plug-In . SVG Version: 2.1.1 Build 123)  -->
  <defs>
    <style>
      .st0 {
        fill: url(#_未命名漸層);
      }

      .st1 {
        isolation: isolate;
      }
    </style>
    <linearGradient id="_未命名漸層" data-name="未命名漸層" x1="0" y1="22.6" x2="159" y2="22.6" gradientTransform="translate(0 40) scale(1 -1)" gradientUnits="userSpaceOnUse">
      <stop offset="0" stop-color="#d0b962"/>
      <stop offset=".5" stop-color="#f7f7f7"/>
      <stop offset="1" stop-color="#d0b962"/>
    </linearGradient>
  </defs>
  <g class="st1">
    <g id="_圖層_11" data-name="_圖層_1">
      <g>
        <g>
          <polygon class="st0" points="159 0 57 0 0 0 16.5 17.3 0 34.7 57 34.7 159 34.7 142.5 17.3 159 0"/>
          <g>
            <polygon points="156.5 32.1 152.5 27.9 6.4 27.9 2.5 32.1 156.5 32.1"/>
            <polygon points="2.5 2.6 6.4 6.8 152.5 6.8 156.5 2.6 2.5 2.6"/>
          </g>
        </g>
        <g>
          <path d="M35,11.8s1,.8,1.5,1.4c0,.2-.2.3-.4.3h-5.6v-.4c0,0,3.6,0,3.6,0l.8-1.2h.1ZM33.7,15l.8-1.1s.9.8,1.5,1.3c0,.2-.2.3-.4.3h-4.5v-.4c0,0,2.7,0,2.7,0h0ZM34.5,15.9s.9.8,1.5,1.3c0,.2-.2.3-.4.3h-4.5v-.4c0,0,2.7,0,2.7,0l.8-1.1h0ZM36.9,19.1c.7,1.7.8,3,.4,3.7-.3.5-1.2.6-1.5,0h0v.6c0,.1-.9.5-1.5.5h-.3v-.9h-1.1v1c0,.2-.8.6-1.5.6h-.3v-6.3l1.8.8h.9l.8-.9,1.7,1.3c0,.1-.2.2-.5.3v2c0-.2.2-.3.4-.5.3-.4.7-1.4.5-2.2,0,0,.2,0,.2,0ZM31.7,10.2c4.4-.2,2.8,3.5.9,2.2,0-.8-.5-1.6-1-2.1h0ZM34,22.7v-3.1h-1.1v3.1h1.1ZM36.5,11.5v-.4c0,0,5.4,0,5.4,0l1-1,1.7,1.5c0,.1-.3.2-.6.3,0,3.6-.3,4.8-1,5.4-.5.4-1,.5-1.9.5,0-.6,0-.9-.3-1.2-.2-.3-.6-.5-1.1-.6h0c-.7,1-1.8,1.8-3.5,2.5v-.2c1.1-1,1.8-2.1,2.2-3.4-.3.2-.8.2-1.2-.1,0-.7-.4-1.5-.7-2h0c1.2,0,1.8.4,2.1.8,0-.6.2-1.3.2-2h-2.4ZM42.6,22.5c.5.2.6.4.6.8,0,.8-.7,1.2-2.6,1.2h-1.1c-1.4,0-1.6-.3-1.6-1.6v-4.4l2.3.2c0,.2-.2.4-.5.4v3.3c0,.2,0,.3.3.3h1.5q.2,0,.3-.2c.2-.2.4-.8.6-1.6h.2v1.7h0ZM39.7,17.5c4.1,1.3,2.3,4.6.8,3.2,0-1.1-.4-2.3-.9-3.1h.2,0ZM41,11.5c-.2,1.7-.5,3.1-1.2,4.2h1.4q.3,0,.4-.1c.3-.3.4-1.5.5-4.2h-1.1ZM42.5,18.9c3.8,2,2.1,5.2.6,3.7,0-1.2-.4-2.6-.8-3.6h.2Z"/>
          <path d="M61.6,17.4c0,.2-.2.3-.6.3-.4,1.2-1.1,2.4-1.9,3.4.2.5.4.8.6,1.1.2.2.2.1.3-.1.2-.4.5-1.3.7-2h.2l-.2,2.5c.4.7.5,1.2.3,1.5-.5.9-1.4.4-2.1,0-.5-.4-.9-.9-1.2-1.6-.9.8-2,1.5-3.3,2v-.2c1.1-.8,2.1-1.9,2.9-3.1-.3-1.1-.5-2.3-.5-3.7,0,0-.2.2-.4.2v4.6c0,.1-.8.6-1.4.6h-.3v-.9h-.8v.8c0,.2-.7.6-1.5.6h-.3v-4c0,.1-.2.2-.4.2v3.7c0,.1-.9.6-1.5.6h-.3v-.9h-.6v1c0,.2-.8.6-1.5.6h-.3v-6.5l1.9.8h.4l.8-.9,1.6,1.2v-3l1.8.7h.6l.8-.9,1.5,1.2v-1.4h-5.1v-.4c0,0,1.4,0,1.4,0,0,0-.3-.2-.4-.3,0-.7,0-1.5-.3-2.1,0,.2-.2.3-.4.3h-4.8v-.4c0,0,3.2,0,3.2,0l.7-1s.8.7,1.3,1.2v-.3h0c2.3.9,2,2.4,1.3,2.7h.7c.2-.8.2-1.9.2-2.7l2.1.6v-.7h-4.9v-.4c0,0,3.3,0,3.3,0l.7-1.1s.5.5.9.9v-2.3l2.4.3c0,.2-.2.4-.5.5v5h.3l.9-1.3s1,.9,1.6,1.5c0,.2-.2.3-.4.3h-2.5c0,1.1,0,2,0,2.8.3-.7.5-1.5.7-2.2l2.3.8h-.1ZM50.7,14.1s.7.6,1.2,1.1c0,.2-.2.3-.4.3h-4v-.4c0,0,2.5,0,2.5,0l.7-.9h0ZM47.4,17.1h2.6l.7-.9s.7.6,1.2,1.1c0,.2-.2.3-.4.3h-4v-.4h0ZM47.9,10.3c4.3-.2,2.6,3.3.8,2.1,0-.8-.5-1.5-.9-2h.1ZM49.9,22.7v-3.2h-.6v3.2h.6ZM53,10c3.6.4,1.7,3.1.3,1.8,0-.6-.2-1.3-.5-1.7h.2ZM53.9,17.6v1.8h.8v-1.8h-.8ZM54.6,21.7v-1.9h-.8v1.9h.8ZM56.7,15.6v-1.9s-.2.1-.4.1c-.3.6-.8,1.2-1.4,1.8h1.9,0ZM58.9,11.1c3.7,1.1,1.8,3.9.4,2.5,0-.9-.3-1.8-.5-2.5h0Z"/>
          <path d="M67.7,21.7c.7-.1,1.5-.3,2.3-.4v.2c-1,.7-2.5,1.7-4.9,2.9,0,.2-.2.4-.4.4l-1.2-2.3c.5,0,1.4-.2,2.4-.4v-4.8h-2.1v-.4c0,0,2.1,0,2.1,0v-1.9h-1v-.2c-.5.4-1,.8-1.5,1.1h0c1.2-1.7,2.1-4.4,2.4-6l2.6.9c0,.2-.2.3-.5.3,3.9.7,2.1,3.5.7,2.4-.2-.5-.6-1.2-1.1-1.9-.5,1-1.3,2-2.3,2.9h2.1l.9-1.3s1,.9,1.6,1.5c0,.2-.2.3-.4.3h-1.5v1.7l.8-1.2s1,1,1.6,1.6c0,.2-.2.3-.4.3h-2v4.4h0ZM64.1,17.9c2.9,2.1,1.1,4.7,0,3.2.2-1,0-2.2,0-3.1h.2,0ZM67.8,21c0-.8.2-2.1.3-3.3l2.1.6c0,.2-.2.3-.6.3-.5.8-1,1.7-1.6,2.4h-.2ZM77.9,13.2c0,.2-.3.3-.7.4v10.4c0,.1-.7.6-1.7.6h-.4v-1.2h-2.9v.9c0,.2-.6.6-1.6.6h-.4v-12.7l2.2.9c0-.9.2-2.1.2-3l3,.6c0,.3-.3.4-.6.4-.5.5-1.2,1.3-1.8,1.9h1.9l1-1.2,1.8,1.5h0ZM72.2,13.3v4.3h2.9v-4.3h-2.9ZM75.1,22.8v-4.8h-2.9v4.8h2.9Z"/>
          <path d="M94.5,14.6c-1,.3-1.6,1.4-1.8,2.3-2.1-1.2-4-3-4.9-5.7-.9,1.5-2.5,3.1-4.3,4.3h4.3l1-1.3s1.1.9,1.8,1.5c0,.2-.2.3-.4.3h-2.2v2.3h2.2l1.1-1.5s1.2,1,2,1.7c0,.2-.2.3-.4.3h-4.9v5.1h2.7l1.2-1.6s1.4,1.1,2.2,1.8c0,.2-.2.3-.5.3h-13.3v-.4c0,0,5.4,0,5.4,0v-5.1h-4.6v-.4c0,0,4.6,0,4.6,0v-2.3h-2.2v-.4c-1.2.8-2.5,1.5-3.6,1.9v-.2c2.5-1.9,5.2-5.3,5.7-7.6l3.3.9c0,.2-.3.3-.8.4,1.4,1.9,4.3,2.8,6.4,3.3v.3-.2ZM82.5,19.3c4.4,1.6,2,5.2.3,3.3,0-1.1-.2-2.3-.5-3.2h.2ZM88.7,23.1c.3-.9.6-2.5.9-3.9l2.8,1c0,.2-.3.3-.6.3-.9,1-2,2-2.9,2.7h-.2Z"/>
          <path d="M106.8,16c4.6,1.5,2.7,5.3.9,3.6,0-.4,0-.9-.2-1.3-.7.2-1.5.4-2.5.6v3.6c0,1.4-.3,2.2-2.6,2.4,0-.6,0-1.1-.3-1.4-.2-.3-.4-.5-1.1-.6v-.2h1.5q.3,0,.3-.3v-3c-.7.2-1.5.3-2.3.5l2.2,1.4c0,.1-.2.2-.6.2-1.2,1-3.1,2.1-5.2,2.6v-.2c1.4-1.1,2.8-2.7,3.4-4h-.6c0,.3-.2.4-.4.5l-1-2.3s.5,0,.8-.2c1.2-.3,2.7-1.2,4.1-2.1-1,.3-2.1.7-3.4,1,0,.1-.2.2-.3.3l-.9-2.1s.4,0,.6-.1c1.2-.3,2.8-1.5,3.6-2.4-1.6.3-3.3.7-5,.9v-.2c2.5-.8,5.7-2.3,7.3-3.3l2,1.7c-.2.2-.5.2-1,0-.7.2-1.5.5-2.4.7l1.7,1c0,.2-.3.3-.6.2-.9.5-2.4,1.1-3.9,1.6,1.1,0,2.4-.1,3.7-.2.7-.5,1.2-1,1.6-1.5l2.2,1.7c0,.2-.3.3-.7.1-1.5,1-4.6,2.3-7.3,3,1.7,0,4.2-.1,6.8-.2-.2-.7-.5-1.3-.8-1.8h0l.3-.2ZM105.6,19.9c6.3.6,5.3,5.1,3,4-.7-1.3-2-2.9-3.1-3.9h0Z"/>
          <path d="M119.9,13.4l1.9,1.7c0,.2-.3.3-.6.3-1,4.1-2.9,7.7-7.7,9.4v-.2c2-1.4,3.4-3.3,4.4-5.6-.4.4-1.1.6-1.7,0,0-.6-.2-1.3-.5-1.9-.7.9-1.5,1.7-2.5,2.3h0c1.4-2.2,2.4-5.1,2.6-7.5h-2.3v-.4c0,0,5.1,0,5.1,0l1.1-1.6s1.3,1.1,2,1.8c0,.2-.2.3-.4.3h-2.9c-.2.9-.6,1.8-1,2.6h1.6l1.1-1.2h0ZM117,15c-.3.6-.6,1.1-1,1.6,1.5.3,2.1,1,2.1,1.6.4-1,.6-2.1.8-3.3h-1.9ZM123.7,20.4c0,.2-.8.6-1.5.6h-.3v-9.8l2.4.2c0,.2,0,.3-.5.4v8.6h0ZM127.3,10.4c0,.2-.2.4-.5.5v11.5c0,1.5-.3,2.3-2.6,2.5,0-.7,0-1.2-.4-1.6-.3-.3-.6-.6-1.4-.7v-.2s1.7.1,2.1.1.3,0,.3-.3v-12l2.6.3h-.1Z"/>
        </g>
      </g>
    </g>
  </g>
</svg>