<?xml version="1.0" encoding="UTF-8"?>
<svg id="_圖層_1" data-name="圖層_1" xmlns="http://www.w3.org/2000/svg" xmlns:xlink="http://www.w3.org/1999/xlink" version="1.1" viewBox="0 0 169.7 25.1">
  <!-- Generator: Adobe Illustrator 30.0.0, SVG Export Plug-In . SVG Version: 2.1.1 Build 123)  -->
  <defs>
    <style>
      .st0 {
        fill: url(#_未命名的渐变_2);
      }

      .st1 {
        fill: url(#_未命名的渐变_23);
      }

      .st2 {
        fill: url(#_未命名的渐变_21);
      }

      .st3 {
        fill: url(#_未命名的渐变_22);
      }
    </style>
    <linearGradient id="_未命名的渐变_2" data-name="未命名的渐变 2" x1="-72" y1="4.1" x2="251.5" y2="4.1" gradientUnits="userSpaceOnUse">
      <stop offset="0" stop-color="#d0b962"/>
      <stop offset=".5" stop-color="#f7f7f7"/>
      <stop offset="1" stop-color="#d0b962"/>
    </linearGradient>
    <linearGradient id="_未命名的渐变_21" data-name="未命名的渐变 2" x1="-72" y1="21" x2="251.5" y2="21" xlink:href="#_未命名的渐变_2"/>
    <linearGradient id="_未命名的渐变_22" data-name="未命名的渐变 2" x1="-72" y1="12.6" x2="251.5" y2="12.6" xlink:href="#_未命名的渐变_2"/>
    <linearGradient id="_未命名的渐变_23" data-name="未命名的渐变 2" x1="-72" y1="12.6" x2="251.5" y2="12.6" xlink:href="#_未命名的渐变_2"/>
  </defs>
  <path class="st0" d="M2.8,8.2c.3,0,.5-.2.6-.5.4-1.1.9-2.3,2.3-2.8.4-.1.7-.2,1-.2.2,0,.4,0,.5,0,.2,0,.4-.3.7-.6.1-.2.3-.4.5-.5,1.3-1.3,3.1-2,5.1-2,.4,0,.7,0,1.1,0s.7,0,1.1,0c.3,0,.7,0,1,0h134.6c.6,0,1.2,0,1.8,0,.7,0,1.4,0,2.1,0,2.6,0,5.6.3,7.6,2.5,0,.1.2.2.3.3.2.2.3.4.5.5.1,0,.3,0,.5,0,.2,0,.5,0,.8.1,1.6.5,2.2,1.8,2.6,2.9.1.4.4.5.6.5s.5-.1.6-.3c0,0,.1-.2,0-.5-.4-1.4-1.6-3.8-4.3-4.1h-.3s-.2-.3-.2-.3c-1.7-2-4.1-3-6.9-3-.4,0-.8,0-1.3,0s-.8,0-1.3,0c-.4,0-.8,0-1.3,0H20.8c-.8,0-1.7,0-2.6,0-.8,0-1.7,0-2.6,0-1.3,0-2.4,0-3.4.2-2.1.3-4,1.3-5.3,2.9l-.2.2h-.3c-2.7.4-3.9,2.7-4.3,4.1,0,.3,0,.4,0,.5.1.2.4.3.6.3Z"/>
  <path class="st2" d="M168.2,16.9c-.3,0-.5.2-.6.5-.4,1.1-.9,2.3-2.3,2.8-.4.1-.7.2-1,.2-.2,0-.4,0-.5,0-.2,0-.4.3-.7.6-.1.2-.3.4-.5.5-1.3,1.3-3.1,2-5.1,2-.4,0-.7,0-1.1,0s-.7,0-1.1,0c-.3,0-.7,0-1,0H19.7c-.6,0-1.2,0-1.8,0-.7,0-1.4,0-2.1,0-2.6,0-5.6-.3-7.6-2.5,0-.1-.2-.2-.3-.3-.2-.2-.3-.4-.5-.5-.1,0-.3,0-.5,0-.2,0-.5,0-.8-.1-1.6-.5-2.2-1.8-2.6-2.9-.1-.4-.4-.5-.6-.5-.3,0-.5.1-.6.3,0,0-.1.2,0,.5.4,1.4,1.6,3.8,4.3,4.1h.3s.2.3.2.3c1.7,2,4.1,3,6.9,3,.4,0,.8,0,1.3,0s.8,0,1.3,0c.4,0,.8,0,1.3,0h132.5c.8,0,1.7,0,2.6,0,.8,0,1.7,0,2.6,0,1.3,0,2.4,0,3.4-.2,2.1-.3,4-1.3,5.3-2.9l.2-.2h.3c2.7-.4,3.9-2.7,4.3-4.1,0-.3,0-.4,0-.5-.1-.2-.4-.3-.6-.3Z"/>
  <path class="st3" d="M168.2,11.1c-.8,0-1.5.7-1.5,1.5s.7,1.5,1.5,1.5,1.5-.7,1.5-1.5-.7-1.5-1.5-1.5Z"/>
  <path class="st1" d="M3.1,12.6c0-.8-.7-1.5-1.5-1.5s-1.5.7-1.5,1.5.7,1.5,1.5,1.5,1.5-.7,1.5-1.5Z"/>
</svg>